<svg width="390" height="264" viewBox="0 0 390 264" fill="none" xmlns="http://www.w3.org/2000/svg">
<path d="M190.762 137.751H117.682C113.431 137.751 110 134.326 110 130.083C110 125.84 113.431 122.415 117.682 122.415H190.762C195.012 122.415 198.443 125.84 198.443 130.083C198.443 134.326 195.012 137.751 190.762 137.751Z" fill="white" fill-opacity="0.8"/>
<path d="M254.009 109.123H180.929C176.679 109.123 173.247 105.698 173.247 101.455C173.247 97.2123 176.679 93.7872 180.929 93.7872H254.009C258.26 93.7872 261.691 97.2123 261.691 101.455C261.691 105.698 258.26 109.123 254.009 109.123Z" fill="white" fill-opacity="0.8"/>
<path d="M261.178 168.679H188.098C183.848 168.679 180.417 165.254 180.417 161.011C180.417 156.768 183.848 153.343 188.098 153.343H261.178C265.429 153.343 268.86 156.768 268.86 161.011C268.86 165.254 265.429 168.679 261.178 168.679Z" fill="#A9A9A9" fill-opacity="0.8"/>
<path d="M164.234 168.679H140.676C136.425 168.679 132.994 165.254 132.994 161.011C132.994 156.768 136.425 153.343 140.676 153.343H164.234C168.484 153.343 171.915 156.768 171.915 161.011C171.915 165.254 168.484 168.679 164.234 168.679Z" fill="white" fill-opacity="0.8"/>
<path d="M156.142 109.123H132.584C128.333 109.123 124.902 105.698 124.902 101.455C124.902 97.2123 128.333 93.7872 132.584 93.7872H156.142C160.392 93.7872 163.823 97.2123 163.823 101.455C163.823 105.698 160.392 109.123 156.142 109.123Z" fill="#A9A9A9" fill-opacity="0.8"/>
<path d="M206.586 82.3362H164.234C159.983 82.3362 156.552 78.9111 156.552 74.6681C156.552 70.4251 159.983 67 164.234 67H206.586C210.837 67 214.268 70.4251 214.268 74.6681C214.268 78.9111 210.837 82.3362 206.586 82.3362Z" fill="white" fill-opacity="0.8"/>
<path d="M256.415 82.3362H232.858C228.607 82.3362 225.176 78.9111 225.176 74.6681C225.176 70.4251 228.607 67 232.858 67H256.415C260.666 67 264.097 70.4251 264.097 74.6681C264.097 78.9111 260.666 82.3362 256.415 82.3362Z" fill="#A9A9A9" fill-opacity="0.8"/>
<path d="M218.826 197H200.902C196.651 197 193.22 193.575 193.22 189.332C193.22 185.089 196.651 181.664 200.902 181.664H218.826C223.076 181.664 226.508 185.089 226.508 189.332C226.508 193.575 223.076 197 218.826 197Z" fill="white" fill-opacity="0.8"/>
<path d="M175.552 197H134.531C130.28 197 126.849 193.575 126.849 189.332C126.849 185.089 130.28 181.664 134.531 181.664H175.552C179.802 181.664 183.234 185.089 183.234 189.332C183.234 193.575 179.802 197 175.552 197Z" fill="#A9A9A9" fill-opacity="0.8"/>
<path d="M271.318 137.751H213.756C209.505 137.751 206.074 134.326 206.074 130.083C206.074 125.84 209.505 122.415 213.756 122.415H271.318C275.569 122.415 279 125.84 279 130.083C279 134.326 275.569 137.751 271.318 137.751Z" fill="white" fill-opacity="0.8"/>
</svg>
