<svg width="390" height="284" viewBox="0 0 390 284" fill="none" xmlns="http://www.w3.org/2000/svg">
<mask id="mask0_9_123" style="mask-type:alpha" maskUnits="userSpaceOnUse" x="0" y="0" width="390" height="284">
<rect width="390" height="284" fill="#D9D9D9"/>
</mask>
<g mask="url(#mask0_9_123)">
<path opacity="0.7" d="M103.426 184.51C100.15 190.644 95.7868 194.912 92.0189 197.754C88.5532 200.371 84.2943 201.75 79.9409 201.75H27.1999C7.0289 201.75 -13.1421 201.75 -33.3036 201.75C-36.7504 201.75 -40.1406 200.887 -43.1341 199.199C-47.8935 196.516 -54.4094 191.554 -58.4417 183.056C-59.7072 180.392 -64.3722 170.149 -60.4815 157.983C-59.6977 155.516 -56.7514 146.765 -47.6197 140.79C-39.3284 135.368 -30.7822 135.396 -26.5988 135.828C-25.3429 135.959 -24.1813 135.199 -23.7753 134.018C-21.6222 127.742 -17.1838 118.316 -7.93879 110.887C10.4946 96.0664 39.344 96.1508 57.7018 110.465C66.5314 117.349 70.9697 125.998 73.1512 131.476C73.5572 132.489 74.5204 133.145 75.6158 133.164C79.8276 133.248 86.419 134.111 92.8499 138.22C108.139 147.994 108.025 166.857 107.997 168.104C107.818 176.143 104.786 181.968 103.436 184.491L103.426 184.51Z" fill="white"/>
<path d="M206.467 246.934C274.656 246.934 329.934 191.656 329.934 123.467C329.934 55.2781 274.656 0 206.467 0C138.278 0 83 55.2781 83 123.467C83 191.656 138.278 246.934 206.467 246.934Z" fill="url(#paint0_radial_9_123)"/>
<path d="M206.921 211.43C255.33 211.43 294.573 172.186 294.573 123.778C294.573 75.3686 255.33 36.1254 206.921 36.1254C158.512 36.1254 119.269 75.3686 119.269 123.778C119.269 172.186 158.512 211.43 206.921 211.43Z" fill="#FFC83E"/>
<path opacity="0.7" d="M450.872 248.34C444.332 260.584 435.625 269.102 428.104 274.775C421.187 279.998 412.687 282.75 403.998 282.75H298.733C258.474 282.75 218.215 282.75 177.975 282.75C171.096 282.75 164.329 281.028 158.355 277.658C148.855 272.304 135.85 262.4 127.802 245.439C125.277 240.122 115.966 219.678 123.731 195.397C125.296 190.473 131.176 173.006 149.402 161.081C165.95 150.26 183.008 150.316 191.357 151.177C193.864 151.439 196.182 149.923 196.993 147.564C201.29 135.04 210.148 116.225 228.6 101.397C265.391 71.8179 322.971 71.9864 359.611 100.555C377.234 114.296 386.093 131.557 390.446 142.491C391.257 144.512 393.179 145.823 395.366 145.86C403.772 146.029 416.928 147.751 429.763 155.951C460.278 175.459 460.051 213.107 459.995 215.597C459.637 231.641 453.587 243.267 450.891 248.303L450.872 248.34Z" fill="white"/>
</g>
<defs>
<radialGradient id="paint0_radial_9_123" cx="0" cy="0" r="1" gradientUnits="userSpaceOnUse" gradientTransform="translate(206.467 123.467) scale(123.467)">
<stop offset="0.15" stop-color="#F4E199"/>
<stop offset="0.23" stop-color="#F3DE96" stop-opacity="0.94"/>
<stop offset="0.39" stop-color="#F1D891" stop-opacity="0.78"/>
<stop offset="0.62" stop-color="#EFCE88" stop-opacity="0.51"/>
<stop offset="0.89" stop-color="#ECC07C" stop-opacity="0.15"/>
<stop offset="1" stop-color="#EBBB77" stop-opacity="0"/>
</radialGradient>
</defs>
</svg>
