<svg width="390" height="202" viewBox="0 0 390 202" fill="none" xmlns="http://www.w3.org/2000/svg">
<path d="M391.764 29.6291C391.084 29.5004 388.671 28.5816 385.522 27.2156C382.747 26.0211 379.783 25.2555 378.061 25.2555C377.823 25.2555 377.608 25.2677 377.418 25.2983C377.045 25.3596 376.744 25.3718 376.493 25.3718L376.089 25.3596H375.752C375.409 25.3535 375.103 25.4086 374.643 25.7271C373.976 26.1865 374.937 26.8113 374.484 26.8113C374.264 26.8113 373.712 26.6643 372.475 26.2845C369.449 25.3351 369.449 24.7532 368.383 24.7532C368.114 24.7532 367.801 24.7899 367.348 24.8634C366.086 25.0656 364.622 25.4637 363.348 25.4637C362.313 25.4637 361.406 25.2003 360.861 24.3734C360.095 23.234 359.636 22.9523 358.987 22.9523C358.576 22.9523 358.092 23.0625 357.394 23.1299C356.61 23.2157 355.599 23.2831 354.576 23.2831C353.272 23.2831 351.961 23.1728 351.097 22.8236C349.541 22.205 349.67 21.5863 347.44 21.4025C347.189 21.3841 346.962 21.3719 346.76 21.3719C345.149 21.3719 344.727 21.9722 341.884 22.5174C339.679 22.9462 339.71 23.4239 338.864 23.4239C338.485 23.4239 337.921 23.3259 336.874 23.0748C334.558 22.5174 335.25 21.9599 334.748 21.9599C334.528 21.9599 334.08 22.0641 333.039 22.3336C330.601 22.9523 330.038 24.3428 329.437 24.3428C329.198 24.3428 328.953 24.1284 328.592 23.5648C327.293 21.5924 330.754 22.1498 327.042 21.1575C324.255 20.4102 324.831 20.0549 324.335 20.0549C324.157 20.0549 323.888 20.0917 323.336 20.1713C321.615 20.4102 321.86 20.5021 320.843 20.5021C320.549 20.5021 320.151 20.496 319.563 20.4776C318.032 20.4408 317.511 20.3428 316.537 20.3428C315.857 20.3428 314.975 20.3857 313.388 20.5388C309.487 20.9125 306.087 21.2188 305.658 21.2188C305.382 21.2188 303.931 21.3658 303.098 21.3658C302.62 21.3658 302.332 21.3168 302.632 21.1514C303.441 20.7165 304.237 19.7915 305.909 19.6016C307.575 19.4179 308.562 19.1728 309.921 17.9968C311.281 16.8207 318.142 16.3919 312.329 15.7732C308.709 15.3873 307.104 15.3199 306.35 15.3199C305.891 15.3199 305.75 15.3444 305.658 15.3444C305.48 15.3444 304.329 15.5037 303.551 15.5037C303.239 15.5037 302.981 15.4792 302.883 15.4057C302.595 15.2158 302.975 14.6155 302.326 14.6155C302.111 14.6155 301.775 14.6767 301.266 14.8482C299.226 15.5282 297.805 16.0856 297.058 16.2081C296.323 16.3306 291.441 16.3306 290.761 16.3919H290.424H290.001C289.854 16.3919 289.695 16.3919 289.517 16.3919C288.703 16.3919 287.649 16.447 286.675 16.8207C285.07 17.4393 283.772 17.6231 283.092 17.9355C282.418 18.2418 282.222 18.4929 280.005 18.983C278.528 19.3137 277.481 19.3689 276.948 19.3689C276.684 19.3689 276.537 19.3566 276.537 19.3566C276.537 19.3566 275.613 19.8528 277.04 20.9615C278.461 22.0763 280.194 21.8926 280.066 23.185C279.943 24.4898 279.943 25.231 279.943 25.231C279.943 25.231 279.784 25.3045 279.514 25.3045C279.178 25.3045 278.675 25.1881 278.081 24.6735C277.04 23.7486 277.714 23.3137 276.537 22.695C275.576 22.1866 275.527 21.8436 275.092 21.8436L274.749 21.8926C273.94 22.0763 274.504 22.0151 272.715 22.3275C272.544 22.352 272.378 22.3704 272.231 22.3704C271.698 22.3704 271.239 22.2233 270.841 22.0702C270.443 21.9232 270.093 21.7701 269.781 21.7701C269.53 21.7701 269.291 21.8681 269.071 22.1437C268.201 23.1912 268.629 25.0472 268.881 25.2983C269.126 25.5495 270.051 26.2233 270.853 26.2233C271.655 26.2233 274.13 26.9032 273.946 27.5219C273.812 27.9752 273.977 28.8634 273.56 28.8634C273.413 28.8634 273.187 28.747 272.838 28.4468C271.539 27.3381 271.227 27.0931 270.737 27.0931C270.247 27.0931 270.118 27.3994 269.26 28.208C268.384 29.0104 267.025 29.6842 266.841 29.7516C266.737 29.7883 265.989 29.9231 265.512 29.9231C265.132 29.9231 264.911 29.8373 265.297 29.5739C266.167 28.9491 268.262 26.793 267.888 25.868C267.515 24.9369 267.337 24.3856 267.398 22.9033C267.453 21.4209 269.744 21.231 267.582 20.8574C266.559 20.6797 265.793 20.496 265.187 20.496C264.513 20.496 264.017 20.7348 263.57 21.4822C262.7 22.9033 260.844 22.597 261.836 24.3244C262.829 26.0518 263.57 26.3642 263.313 26.6705C263.208 26.8052 262.7 26.8971 262.106 26.8971C261.365 26.8971 260.513 26.7623 260.103 26.4193C259.472 25.8986 258.308 25.1023 257.205 25.1023C257.016 25.1023 256.826 25.1268 256.636 25.182C256.495 25.2248 256.323 25.2432 256.133 25.2432C254.7 25.2432 252.189 24.1345 252.189 24.1345C252.189 24.1345 254.596 25.2432 253.42 26.2294C252.556 26.9645 251.405 27.6995 249.659 27.6995C249.059 27.6995 248.379 27.6138 247.613 27.4055C246.915 27.2156 246.302 27.1421 245.751 27.1421C244.017 27.1421 243.025 27.9323 242.167 28.2141C241.059 28.5877 237.414 29.0165 237.285 29.2615L237.218 29.3044C236.979 29.3044 236.354 28.4836 237.285 27.7179C237.959 27.1727 237.769 26.5724 237.34 26.5724C237.108 26.5724 236.777 26.7685 236.483 27.2891C235.68 28.7102 236.177 29.4514 236.115 29.9476C236.054 30.4438 233.022 30.3764 232.654 31.1849C232.305 31.9445 232.55 33.8618 231.705 33.8618L231.533 33.8434C230.48 33.5984 226.964 32.4835 226.78 32.4835C226.67 32.4835 226.541 32.9552 226.192 32.9552C225.923 32.9552 225.524 32.6918 224.924 31.8036C223.503 29.6964 222.449 29.8863 223.687 29.4514C223.901 29.3779 224.048 29.3534 224.164 29.3534C224.44 29.3534 224.532 29.5188 224.759 29.6842C224.991 29.8496 225.371 30.015 226.223 30.015H226.413C228.697 29.9537 232.397 29.5801 232.599 29.3963C232.777 29.2064 233.702 29.2064 233.144 28.404C232.599 27.6015 229.5 26.113 225.849 25.3106C224.949 25.1146 224.354 25.0472 223.913 25.0472C223.472 25.0472 223.148 25.1146 222.829 25.1881C222.523 25.2616 222.186 25.3351 221.671 25.3351C221.157 25.3351 220.501 25.2677 219.491 25.0656C216.887 24.551 215.46 24.0181 214.217 24.0181C213.512 24.0181 212.863 24.1896 212.073 24.6368C209.91 25.8741 210.719 25.6842 208.734 26.2417C208.275 26.3703 207.809 26.4071 207.356 26.4071C207.074 26.4071 206.78 26.3948 206.499 26.3764C206.223 26.3642 205.947 26.3519 205.696 26.3519C204.845 26.3519 204.104 26.5051 203.613 27.2953C203.613 27.2953 203.179 29.9537 202.744 30.5111C202.315 31.0624 201.457 32.0548 199.901 32.8572C198.364 33.6596 196.379 34.407 195.516 34.9582C194.652 35.5157 192.545 35.0808 193.286 36.6244C194.027 38.1741 194.462 37.6167 194.529 38.6642C194.591 39.7178 195.026 41.4451 195.393 41.6963C195.552 41.8004 195.712 41.8372 195.95 41.8372C196.287 41.8372 196.79 41.7698 197.684 41.6963C198.903 41.5983 199.277 40.1037 199.565 40.1037C199.638 40.1037 199.699 40.2078 199.785 40.4589C200.159 41.6963 200.894 42.7438 201.267 43.3073C201.635 43.8525 201.267 44.7897 200.839 44.9734L200.71 45.0041C200.3 45.0041 199.828 44.2445 199.601 43.7422C199.479 43.4543 199.093 43.3134 198.64 43.3134C198.217 43.3134 197.745 43.4359 197.378 43.6748C196.643 44.171 196.532 46.4374 196.624 47.1357C196.71 47.8402 196.483 49.0836 195.601 49.4573C194.725 49.8309 194.168 50.8478 193.243 50.909C192.318 50.9703 191.387 51.4665 190.707 52.3975C190.027 53.3225 190.836 54.0024 188.238 54.7436C185.641 55.4848 186.327 55.9748 184.526 56.0973C182.738 56.2198 182.922 57.4572 183.601 57.7696C184.281 58.082 186.505 58.7007 186.811 59.8706C187.124 61.0467 187.865 61.9717 186.389 62.7129C185.274 63.2703 185.163 63.7542 184.453 63.7542C184.22 63.7542 183.914 63.6991 183.479 63.5766C181.752 63.0804 179.522 62.7129 179.522 62.7129C179.522 62.7129 178.695 64.477 179.16 65.5857C179.62 66.7006 179.834 68.526 179.338 69.1446C178.842 69.7572 178.107 69.8246 178.658 71.0558C179.216 72.2993 180.202 73.3467 180.637 73.408C181.072 73.4692 182.432 74.1492 182.131 74.8291C181.819 75.509 181.629 75.9378 180.398 77.4876C179.167 79.0312 177.923 79.7724 177.556 80.5809C177.188 81.3834 177.862 83.9193 177.678 84.2869C177.494 84.6544 176.202 84.7769 175.271 85.5181C174.334 86.2593 172.484 88.9484 172.3 89.6895C172.116 90.4307 171.191 92.3786 171.001 93.1198C170.811 93.8671 169.703 97.4751 170.076 98.0325C170.444 98.5899 170.352 99.0493 170.26 100.446C170.168 101.83 170.26 106.222 170.444 106.725C170.634 107.215 170.695 108.813 170.873 109.683C171.063 110.547 171.926 112.213 172.429 112.587C172.919 112.966 175.142 115.68 176.257 117.285C177.372 118.896 177.059 120.011 179.093 120.011C179.412 120.011 179.693 120.011 179.938 120.011C181.298 120.011 181.788 119.962 182.989 119.392C183.853 118.969 184.055 118.767 184.33 118.767C184.508 118.767 184.722 118.853 185.151 119.025C185.874 119.3 186.205 119.772 186.744 119.772C187.032 119.772 187.375 119.637 187.871 119.27C189.298 118.21 188.98 118.277 190.094 117.603C190.842 117.144 191.093 116.348 191.509 116.348C191.718 116.348 191.963 116.531 192.324 117.046C193.433 118.59 193.745 118.645 194.058 119.202C194.303 119.655 193.702 120.311 194.29 120.311C194.425 120.311 194.627 120.274 194.921 120.188C196.048 119.876 196.385 119.533 196.698 119.533L197.09 119.692C197.647 120.127 199.197 122.167 198.762 123.717C198.327 125.266 197.954 125.322 198.143 126.865C198.327 128.415 197.954 128.721 198.695 130.265C199.442 131.815 203.338 139.851 203.522 140.77C203.522 140.77 203.699 143.122 202.646 144.36C201.598 145.591 201.292 151.404 201.359 152.206C201.427 153.015 203.454 156.721 203.644 158.761C203.828 160.8 203.95 162.038 203.828 164.5C203.693 166.981 204.447 166.301 205.243 167.477C206.051 168.647 208.704 170.999 208.275 173.039C207.84 175.073 206.535 175.263 207.589 175.814C208.275 176.182 210.315 176.745 212.232 176.745C213.261 176.745 214.266 176.58 215.007 176.126C217.108 174.816 219.393 174.515 220.134 173.958C220.881 173.401 221.433 172.231 221.494 170.313C221.555 168.402 222.168 167.226 222.731 166.546C223.289 165.866 223.968 164.065 224.452 163.765C224.955 163.459 226.994 161.664 226.994 159.563C226.994 157.462 225.947 155.796 227.429 154.191C228.912 152.58 232.06 151.845 232.06 148.072C232.06 144.298 232.985 143.986 232.189 140.654C231.386 137.315 232.624 130.02 233.242 129.217C233.855 128.415 239.601 120.317 240.532 118.712C241.457 117.101 243.931 113.885 243.742 113.022C243.564 112.158 243.129 109.861 243.129 109.861H243.098C243.013 109.861 242.663 109.891 241.206 110.179C239.821 110.443 239.019 111.196 238.069 111.196C237.708 111.196 237.322 111.086 236.881 110.798C235.276 109.744 234.664 111.411 233.665 108.072C232.685 104.734 233.169 106.1 231.509 103.129C229.843 100.164 227.613 96.4521 227.558 95.2147C227.491 93.9774 225.267 87.613 225.145 87.0617C225.022 86.4982 225.267 85.4507 225.579 85.4507C225.892 85.4507 227.442 86.4982 228.115 87.613C228.795 88.7217 228.795 89.8366 229.408 91.3189C230.02 92.8013 230.896 91.7477 231.209 93.9774C231.515 96.2071 230.958 96.6359 231.754 97.4995C232.563 98.3694 233.426 98.7982 233.984 100.287C234.535 101.769 235.215 103.374 235.344 104.611C235.466 105.842 235.344 107.025 235.466 107.264C235.533 107.411 236.06 107.631 236.918 107.631C237.487 107.631 238.21 107.539 239.049 107.264C241.144 106.584 243.564 104.918 244.305 104.231C245.046 103.558 244.605 102.688 246.951 102.198C249.304 101.708 250.235 100.409 250.425 99.6006C250.602 98.7982 250.486 98.057 251.907 97.0708C253.328 96.0784 252.893 95.031 252.654 94.351C252.397 93.6711 251.852 92.4399 250.547 91.7538C249.255 91.08 248.072 89.9652 247.889 89.5303L247.827 89.4629C247.656 89.4629 247.466 90.9085 247.025 91.08C246.663 91.2087 246.829 93.0341 245.959 93.0341C245.64 93.0341 245.199 92.8074 244.556 92.1887C242.082 89.8366 241.402 87.2455 241.15 86.443C240.905 85.6345 239.736 83.6559 240.103 82.9147C240.348 82.4308 240.905 82.0266 241.383 82.0266C241.641 82.0266 241.867 82.1368 242.02 82.4186C242.455 83.221 241.598 82.976 243.576 84.6421C245.555 86.3021 246.045 87.172 247.343 87.3619C247.601 87.3986 247.882 87.4109 248.176 87.4109C249.359 87.4109 250.67 87.172 250.866 87.172H250.988C251.245 87.172 251.76 87.2577 254.204 88.3481C257.107 89.6467 256.556 89.8978 258.97 90.0816C261.377 90.2653 261.003 90.0816 261.751 91.5639C262.394 92.8442 263.264 93.5302 263.735 93.5302L263.913 93.4751L264.262 93.3771C264.556 93.3771 264.789 93.5915 264.47 94.0387C264.035 94.6573 264.035 96.0233 264.587 96.2071C264.752 96.2561 264.911 96.2867 265.077 96.2867C265.481 96.2867 265.916 96.1213 266.449 95.7722L266.749 95.6742C267.38 95.6742 267.943 96.8441 268.048 97.3219C268.17 97.8732 268.611 103.38 269.297 105.297C269.971 107.208 270.89 109.316 271.263 109.928C271.637 110.553 271.637 112.403 271.637 113.267C271.637 114.13 272.256 115.006 272.256 115.006C272.256 115.006 273.799 113.953 274.051 113.395C274.289 112.838 274.289 112.532 275.037 110.308C275.784 108.084 275.839 106.357 275.839 105.548C275.839 104.74 274.289 104.801 275.839 103.937C277.389 103.068 276.954 103.258 277.885 102.21C278.804 101.156 278.743 101.591 279.98 100.421C281.205 99.2392 280.415 99.0554 281.83 98.1917C283.251 97.3219 283.184 97.6343 284.556 96.0846C285.916 94.5409 285.352 94.4246 286.222 93.9835C286.755 93.7201 286.657 93.3403 286.804 93.3403C286.896 93.3403 287.079 93.4935 287.582 93.9223C288.88 95.0371 289.125 94.7921 289.254 95.9008C289.377 97.0156 288.697 96.5807 289.622 97.6343C290.553 98.6818 291.171 99.5455 291.355 100.47C291.539 101.401 291.539 103.068 291.539 103.319C291.539 103.392 291.729 103.435 291.98 103.435C292.556 103.435 293.53 103.233 293.707 102.761L293.879 102.62C294.338 102.62 295.398 104.14 295.557 104.991C295.747 105.977 295.931 105.793 295.863 107.521C295.808 109.254 295.68 112.28 295.747 112.532C295.808 112.777 295.808 115.006 296.17 115.564C296.549 116.115 296.978 115.992 297.095 117.414C297.223 118.835 297.842 119.766 298.154 120.446C298.461 121.119 299.698 122.914 300.623 123.288C301.554 123.662 302.853 124.219 302.853 124.219C302.853 124.219 300.813 121.377 300.5 119.827C300.194 118.283 300.378 117.977 299.631 116.985C298.889 115.992 298.455 116.489 297.474 115.251C296.482 114.02 295.618 113.15 296.415 112.103C297.223 111.055 298.148 110.737 297.781 108.948C297.444 107.306 297.413 106.963 297.842 106.963L297.964 106.982C298.516 107.043 299.514 107.968 300.623 108.77C301.738 109.573 302.234 111.429 302.356 112.231C302.467 112.936 302.24 114.357 303.018 114.357L303.404 114.265C304.647 113.775 306.001 112.415 306.118 111.172C306.246 109.934 306.987 110.81 306.614 108.268C306.246 105.732 306.117 104.869 305.376 103.815C304.641 102.767 302.846 100.421 302.969 99.0554C303.092 97.7017 303.771 96.397 305.193 95.9069C306.393 95.4904 305.744 94.9881 307.03 94.9881C307.269 94.9881 307.575 95.0004 307.974 95.0432L308.206 95.0555C310.859 95.0555 316.457 91.2025 316.935 90.9024C317.437 90.59 317.37 90.59 318.424 88.8013C319.477 87.0127 320.402 87.3802 320.463 85.1506C320.531 82.927 320.531 82.8657 320.463 82.1246C320.408 81.3834 320.966 81.757 319.912 79.4048C318.859 77.0588 318.05 75.5764 318.859 74.774C319.667 73.9654 321.897 72.6117 320.898 72.3544C320.243 72.1951 319.839 72.14 319.526 72.14L319.104 72.1768L318.92 72.189C318.424 72.189 317.407 71.9746 317.254 71.0558C317.07 70.0083 316.764 70.0696 317.682 69.4509C318.614 68.8322 318.24 69.0773 319.6 68.091C320.8 67.2274 320.647 66.8353 320.935 66.8353L321.082 66.8598C321.578 66.9885 321.817 68.5321 321.266 69.2733C320.77 69.9348 320.911 70.5964 321.309 70.5964L321.45 70.578C321.94 70.3881 323.551 69.3958 323.551 69.3958C323.551 69.3958 324.359 69.8307 324.604 70.5106C324.849 71.1905 325.652 71.993 326.025 73.4754C326.387 74.9577 326.767 74.3942 326.387 75.8888C326.283 76.3237 326.332 76.483 326.448 76.483C326.73 76.483 327.477 75.5825 327.698 75.4539L327.93 75.4171H328.108L328.316 75.4233C329.064 75.4233 330.074 75.2579 329.358 73.163C328.371 70.2595 327.998 70.9394 327.998 69.7021C327.998 68.4647 326.644 68.526 328.188 67.5459C329.731 66.5536 333.008 64.0788 333.505 64.0176C333.995 63.9502 336.224 63.9502 337.394 61.5429C338.57 59.1356 338.809 58.2106 339.312 57.2796C339.808 56.3485 340.175 56.4159 340.488 54.4925C340.794 52.5813 340.42 53.0162 341.045 51.8952C341.664 50.7804 342.025 50.223 341.168 49.1143C340.408 48.1464 340.696 47.7299 340.181 47.7299L339.918 47.7544C339.342 47.834 338.405 48.6426 337.688 48.6426C337.345 48.6426 337.057 48.4466 336.892 47.8769C336.396 46.1434 337.014 47.6258 338.123 45.782C339.238 43.926 340.782 42.9398 342.638 41.8862C344.494 40.8387 344.806 40.8939 346.154 40.7713C347.52 40.6488 351.661 40.7101 352.647 40.3977C353.174 40.2323 354.08 40.0914 354.631 40.0914C355.121 40.0914 355.336 40.2017 354.748 40.5263C353.872 41.0102 354.876 41.5922 355.587 41.5922C355.875 41.5922 356.12 41.5003 356.175 41.2675C356.353 40.4589 354.932 38.9214 356.481 38.7316C358.019 38.5478 357.909 37.9904 359.446 37.6228C360.732 37.3166 362.307 36.6673 363.164 36.6673C363.342 36.6673 363.489 36.6918 363.593 36.7591C364.163 37.096 363.74 38.3273 364.15 38.3273L364.279 38.3028C364.892 38.0577 366.129 36.3916 366.564 36.3242L366.766 36.312C367.17 36.312 367.593 36.4896 367.115 37.0715C366.564 37.7515 366.313 37.6841 365.271 39.0501C364.212 40.4099 363.905 40.8448 362.735 41.2124C361.559 41.5799 361.621 41.3288 360.634 42.1373C359.642 42.9459 357.725 42.1986 358.276 44.9183C358.834 47.638 358.588 48.318 358.588 49.7391C358.588 51.1602 358.466 52.4588 358.711 52.955C358.803 53.1326 359.14 53.2245 359.562 53.2245C360.255 53.2245 361.173 52.9795 361.559 52.52C362.178 51.7727 362.056 50.4741 362.735 48.9918C363.409 47.5094 363.109 47.3869 363.538 47.0132C363.967 46.6457 364.15 46.5232 364.837 45.9658C365.516 45.4083 366.006 44.612 365.884 43.6197C365.761 42.6274 364.892 42.3211 365.516 41.7024C366.135 41.0837 364.836 40.7713 366.625 40.4651C368.42 40.1527 369.406 39.975 369.584 39.9138C369.774 39.8464 368.787 38.4927 372.432 38.4927C376.077 38.4927 376.702 37.629 377.694 36.8265C378.686 36.0241 378.558 35.7178 380.53 35.7178C381.675 35.7178 382.472 35.9812 382.888 35.9812C383.195 35.9812 383.305 35.8403 383.195 35.3442C382.95 34.1681 382.147 33.2431 381.712 32.8082C381.277 32.3794 383.072 32.1956 383.752 32.0058C384.432 31.822 384.432 31.3871 385.173 31.1359C385.535 31.0196 386.049 30.8297 386.729 30.8297C387.464 30.8297 388.383 31.0502 389.504 31.822C390.649 32.6061 391.562 32.9062 392.242 32.9062C392.861 32.9062 393.283 32.6673 393.516 32.312C394.018 31.5708 394.447 30.9522 394.447 30.6398C394.447 30.3274 392.469 29.7761 391.789 29.6597L391.764 29.6291Z" fill="#404148"/>
<path d="M351.103 159.183C350.411 158.626 348.935 156.586 348.812 156.402C348.683 156.219 347.262 153.738 346.344 152.262C345.412 150.779 345.719 150.467 345.596 149.358C345.474 148.243 345.474 147.692 345.039 146.148C344.61 144.599 344.61 144.844 344.304 143.796C343.997 142.743 343.256 141.934 343.256 141.934C343.256 141.934 343.189 142.559 342.821 144.782C342.448 147.012 342.699 147.012 342.448 147.692C342.197 148.366 342.197 151.153 342.197 151.153C342.197 151.153 341.988 151.459 341.357 151.459C341.014 151.459 340.549 151.373 339.918 151.092C338.117 150.289 336.763 149.364 336.696 147.631C336.647 145.897 336.886 145.407 336.647 145.033C336.396 144.66 335.41 144.415 334.05 144.36L333.958 144.347C332.641 144.347 331.55 145.609 330.209 146.332C329.456 146.742 328.867 146.914 328.286 146.914C327.826 146.914 327.361 146.81 326.815 146.644C326.638 146.589 326.491 146.565 326.368 146.565C325.633 146.565 325.707 147.459 324.653 148.623C323.416 149.989 322.056 150.853 320.874 151.349C319.698 151.851 321.247 153.879 320.133 154.871C319.03 155.857 318.405 155.618 315.992 156.292C313.591 156.966 314.944 157.646 314.013 159.073C313.088 160.494 312.531 161.487 312.035 163.275C311.551 165.07 312.531 165.756 312.531 167.422C312.531 169.088 313.401 170.136 313.149 172.298C312.898 174.466 313.149 173.107 314.816 177.186C315.306 178.387 315.514 178.828 315.649 178.828C315.979 178.828 315.894 176.298 318.338 175.643C319.453 175.342 319.961 175.238 320.255 175.238C320.849 175.238 320.451 175.704 322.54 175.826C322.999 175.851 323.33 175.869 323.575 175.869C325.033 175.869 323.489 175.453 323.955 175.085C324.525 174.65 325.872 173.854 326.803 173.542C327.722 173.235 329.278 173.051 331.808 172.923C332.028 172.911 332.237 172.904 332.396 172.904C334.117 172.904 333.045 173.462 334.344 174.528C335.226 175.257 335.636 175.563 335.851 175.563C335.979 175.563 336.028 175.447 336.071 175.263C336.157 174.92 337.161 174.73 337.798 174.73C338.062 174.73 338.258 174.76 338.301 174.834C338.423 175.085 339.226 176.568 339.599 177.131C339.967 177.688 341.265 179.042 342.068 180.714C342.405 181.431 342.515 181.633 342.521 181.633L342.374 181.272C342.374 181.272 348.304 181.272 349.48 180.776C350.662 180.286 350.533 179.422 351.464 176.696C352.383 173.983 353.382 174.914 354.919 173.18C356.469 171.453 355.667 166.32 354.858 164.77C354.056 163.226 351.771 159.765 351.097 159.214L351.103 159.183Z" fill="#404148"/>
<path d="M301.548 128.893C300.574 127.171 300.849 127.643 300.053 126.112C299.275 124.58 300.016 124.813 298.755 123.882C297.505 122.957 296.586 122.816 296.078 122.075C295.563 121.334 294.54 120.544 293.707 119.478C293.015 118.59 292.004 117.965 291.68 117.965L291.575 118.044C291.575 118.369 292.035 118.743 292.451 119.251C292.874 119.76 291.484 119.478 293.474 121.842C295.471 124.207 296.856 125.364 296.905 126.253C296.954 127.129 295.557 129.125 297.554 130.467C299.551 131.808 301.125 132.127 301.634 132.972C302.142 133.805 302.791 134.032 302.791 134.032C302.791 134.032 302.601 131.441 302.326 130.926C302.044 130.418 302.516 130.608 301.542 128.887L301.548 128.893Z" fill="#404148"/>
<path d="M312.715 138.351C311.324 138.118 311.189 137.475 310.301 136.96C310.081 136.831 309.878 136.782 309.682 136.782C309.119 136.782 308.604 137.193 307.704 137.193C306.503 137.193 306.277 136.868 305.578 136.127C305.113 135.625 305.021 135.545 304.911 135.545L304.696 135.563C304.372 135.563 304.372 136.262 304.372 136.262C304.372 136.262 305.854 137.517 307.937 138.351C309.548 138.994 310.087 139.116 310.858 139.116C311.085 139.116 311.336 139.104 311.649 139.092H311.722C313.107 139.092 316.145 140.396 316.145 140.396C315.863 139.282 314.105 138.583 312.715 138.351Z" fill="#404148"/>
<path d="M318.093 134.602C318.975 134.412 318.742 134.185 319.024 133.248C319.306 132.329 319.44 132.237 319.673 130.283C319.765 129.518 319.869 129.279 319.949 129.279L320.182 129.818C320.182 129.818 320.267 131.116 320.267 132.182C320.267 133.248 320.641 133.946 321.891 134.406C322.172 134.516 322.368 134.553 322.509 134.553C322.999 134.553 322.816 134.026 322.95 133.665C323.14 133.205 322.767 132.972 322.038 131.857C321.29 130.749 321.615 128.752 320.966 128.158C320.721 127.931 320.586 127.858 320.494 127.858L320.298 127.937L320.041 128.023H319.992L319.9 128.017C319.496 128.017 319.269 128.323 318.84 128.709C318.375 129.132 318.375 131.073 318.375 132.005C318.375 132.936 318.099 134.602 318.099 134.602H318.093Z" fill="#404148"/>
<path d="M241.959 146.834C241.996 146.375 242.467 145.346 242.376 144.935C242.327 144.739 242.124 144.654 241.916 144.654C241.665 144.654 241.426 144.758 241.408 144.935C241.408 144.935 239.552 149.15 238.902 149.34L238.749 149.358L238.425 149.242L238.143 149.113C237.971 149.113 237.732 149.291 237.334 149.934C236.354 151.471 234.222 153.039 234.682 153.977C235.147 154.908 236.213 157.125 236.079 157.407C235.938 157.683 235.478 161.346 235.938 161.627C236.403 161.897 236.219 163.336 237.144 163.392H237.206C238.149 163.392 239.797 162.405 239.882 162.087C239.974 161.762 241.23 159.257 241.689 158.295C242.149 157.315 242.192 154.583 242.565 153.193C242.939 151.802 243.858 149.995 243.405 149.438C242.939 148.88 241.916 147.306 241.971 146.84L241.959 146.834Z" fill="#404148"/>
<path d="M276.158 113.193C275.882 112.636 275.447 112.452 275.447 112.452C275.447 112.452 275.539 113.444 275.349 114.308C275.165 115.172 274.89 114.743 274.89 115.796C274.89 116.85 274.92 117.493 275.349 117.64C275.643 117.75 276.568 118.13 277.15 118.13C277.444 118.13 277.658 118.026 277.64 117.738C277.573 116.868 277.046 116.256 276.887 115.386C276.733 114.522 276.433 113.744 276.152 113.187L276.158 113.193Z" fill="#404148"/>
<path d="M325.786 114.584C325.352 113.751 325.413 113.475 325.076 113.377C324.739 113.285 324.182 113.248 324.182 113.248C324.182 113.248 322.975 115.074 323.067 115.57C323.159 116.066 323.502 117.42 323.753 117.793C323.986 118.149 324.114 118.571 324.488 118.571H324.525C324.929 118.528 325.321 118.069 324.929 117.389C324.525 116.715 325.045 116.372 325.382 115.999C325.719 115.625 326.215 115.411 325.786 114.578V114.584Z" fill="#404148"/>
<path d="M330.956 79.5825L331.226 79.4723C331.569 79.1047 331.943 77.5611 332.341 76.5688C332.469 76.2319 332.616 76.1339 332.8 76.1339C332.972 76.1339 333.186 76.2258 333.474 76.3238C333.756 76.4218 334.087 76.5137 334.528 76.5137L334.711 76.5014C336.2 76.4156 337.652 75.6071 339.165 75.2947C340.678 74.9884 340.524 74.2472 341.204 73.5673C341.878 72.8935 341.725 72.0543 341.976 71.1232C342.221 70.1921 341.701 69.3652 341.572 68.869C341.449 68.3729 341.394 68.1279 341.204 67.3867C341.014 66.6455 341.266 67.2335 342.472 65.1631C342.987 64.2688 343.122 64.0483 343.134 64.0483L343.097 64.1585V64.2688L343.207 64.183C343.642 63.7175 344.573 64.085 346.08 63.5031C347.599 62.9151 345.927 62.572 345.927 62.572C345.927 62.572 344.849 62.0146 344.077 61.739L343.783 61.6838C343.256 61.6838 343.103 62.3515 342.619 63.0069C342.062 63.7788 341.419 63.9319 341.235 64.2749C341.045 64.6179 340.573 65.7022 340.573 66.4066C340.573 67.111 341.008 67.889 340.923 69.0651C340.837 70.2412 340.237 70.7006 340.022 71.1661C339.802 71.6316 338.509 72.3728 337.762 73.3897C337.021 74.4065 336.034 74.4739 334.92 74.6883C333.811 74.9088 333.658 74.9088 331.649 75.3682C329.633 75.8399 330.503 77.7204 330.503 77.7204L329.97 78.9884C329.927 79.1109 330.522 79.5887 330.944 79.5887L330.956 79.5825Z" fill="#404148"/>
<path d="M297.664 14.4256C299.275 14.4256 302.424 13.8069 302.363 13.6232C302.301 13.4455 303.845 12.2694 302.05 11.7733C302.05 11.7733 301.627 11.7549 301.131 11.7549C300.506 11.7549 299.778 11.7916 299.637 11.9631L299.563 12.0305L299.539 11.9631L299.508 11.9019C299.471 11.9019 299.367 12.0305 299.085 12.5144C298.405 13.6905 296.059 14.4317 297.664 14.4317V14.4256Z" fill="#404148"/>
<path d="M315.373 127.833C315.973 126.804 316.065 125.561 316.114 124.348C316.163 123.141 316.206 121.665 316.249 120.593C316.298 119.527 316.947 119.478 317.18 118.927C317.413 118.369 316.666 118.045 315.924 116.93C315.741 116.636 315.624 116.513 315.557 116.513C315.379 116.513 315.508 117.377 314.999 117.714C314.307 118.179 313.927 119.153 312.825 119.986C311.716 120.826 311.532 121.236 310.362 122.253C309.205 123.276 308.145 123.698 308.145 123.698L307.073 123.931C307.073 123.931 306.344 124.672 306.43 125.04C306.522 125.42 307.532 126.663 308.237 128.011C308.929 129.358 309.535 130.32 309.67 130.369C309.805 130.418 311.949 132.127 312.917 132.874C313.094 133.009 313.211 133.064 313.303 133.064C313.695 133.064 313.315 131.833 313.468 130.877C313.652 129.72 314.767 128.838 315.379 127.821L315.373 127.833Z" fill="#404148"/>
<path d="M340.861 130.424C339.924 129.977 338.987 129.42 338.191 129.42C337.921 129.42 337.67 129.487 337.431 129.64C336.506 130.246 335.759 131.031 335.759 131.631L335.593 131.778C335.171 131.778 334.05 131.086 333.67 130.835L333.541 130.749L332.194 130.651L332.249 132.366C332.249 132.366 334.558 133.064 335.814 133.346C337.057 133.622 337.106 134.926 337.29 136.078C337.474 137.174 337.315 138.228 338.423 138.228L338.638 138.21L338.938 138.197C339.887 138.197 339.422 138.865 339.851 139.416C340.31 140.017 342.534 140.666 342.76 140.666C342.987 140.666 344.016 139.135 344.616 137.328C344.763 136.893 344.923 136.715 345.113 136.715C345.67 136.715 346.356 138.455 346.987 139.373C347.82 140.574 349.308 140.991 349.823 141.505C349.952 141.64 350.154 141.695 350.362 141.695C350.926 141.695 351.55 141.285 351.116 140.942C350.521 140.488 351.14 135.055 349.639 135.055H349.584C349.388 135.073 349.229 135.086 349.082 135.086C348.01 135.086 347.979 134.645 347.128 133.989C346.142 133.242 345.872 133.107 344.616 132.127C343.361 131.159 342.117 131.018 340.861 130.418V130.424Z" fill="#404148"/>
<path d="M318.889 104.838C319.116 106.179 319.538 107.288 319.538 107.288C319.538 107.288 320.096 107.019 320.322 106.228C320.561 105.444 320.518 104.746 320.469 104.605L320.427 103.466C320.427 103.466 320.518 102.884 320.384 102.137C320.261 101.395 320.261 101.022 320.077 100.685L319.789 100.366C319.661 100.366 319.526 100.562 319.348 101.181C319.024 102.339 319.024 102.388 319.073 102.988C319.116 103.594 318.662 103.496 318.889 104.844V104.838Z" fill="#404148"/>
<path d="M324.316 108.005C324.316 108.005 323.667 107.043 323.355 107.043L323.208 107.196C323.152 107.38 323.024 107.441 322.852 107.441C322.411 107.441 321.719 106.988 321.541 106.614C321.37 106.247 321.309 105.751 321.296 105.751C321.296 105.751 321.296 105.842 321.296 106.094C321.296 106.896 321.168 107.668 321.548 107.98C321.909 108.287 322.528 108.623 322.595 108.807C322.65 108.997 322.626 109.432 322.595 109.769C322.558 110.106 323.024 111.747 323.152 111.962C323.244 112.133 323.526 112.734 323.728 112.734L323.887 112.544C324.071 111.962 324.132 111.368 324.322 110.847C324.506 110.326 324.874 108.77 324.721 108.709L324.322 108.005H324.316Z" fill="#404148"/>
<path d="M243.429 22.2601C243.08 22.2601 243.172 23.5159 243.754 23.5159C244.158 23.5159 243.827 23.4852 243.968 23.4852C244.036 23.4852 244.226 23.4914 244.679 23.5159C246.039 23.571 246.535 24.1897 247.154 24.2571C247.46 24.2877 247.705 24.3367 247.962 24.3367C248.219 24.3367 248.452 24.2877 248.765 24.1407C249.383 23.8283 249.506 22.9033 248.397 22.6583C248.397 22.6583 246.909 20.6798 248.893 19.9998C250.872 19.3199 250.131 18.9585 252.232 18.5175C254.333 18.0826 253.524 17.715 255.999 17.0964C258.473 16.4838 257.236 16.7227 259.521 16.2327C261.806 15.7365 261.996 15.859 262.247 15.7365C262.431 15.6324 264.035 14.0581 263.202 14.0581C263.006 14.0581 262.657 14.1439 262.118 14.3828C259.343 15.5466 257.671 16.1714 257.365 16.1714C257.132 16.1714 255.876 16.0673 255.062 16.0673C254.792 16.0673 254.578 16.0795 254.455 16.104C253.959 16.2327 253.04 16.4838 251.858 17.2189C250.682 17.96 249.322 18.0213 248.464 18.4562C247.588 18.885 245.677 20.4286 245.31 21.0473C244.973 21.5986 244.146 22.3091 243.656 22.3091L243.521 22.2785L243.441 22.2663L243.429 22.2601Z" fill="#404148"/>
<path d="M290.479 11.1485C290.914 11.2343 291.631 11.32 292.249 11.32C292.513 11.32 292.745 11.3139 292.948 11.271L293.144 11.2588C293.744 11.2588 294.265 11.7427 294.993 12.0735C295.557 12.3369 296.09 12.8147 296.384 12.8147C296.506 12.8147 296.58 12.7289 296.604 12.5084C296.66 11.7672 297.278 10.5911 296.225 10.5299C295.171 10.4686 295.3 10.0337 294.675 9.97243C294.056 9.91118 292.886 9.16999 291.961 8.60645C291.961 8.60645 290.54 8.85759 289.554 9.10874C288.562 9.35376 288.317 9.47627 288.317 9.47627C288.317 9.47627 289.186 10.2175 289.615 10.5237C290.05 10.83 289.86 11.0199 290.479 11.1424V11.1485Z" fill="#404148"/>
<path d="M249.91 9.88053C250.278 9.88053 250.933 9.78864 251.539 9.66613C252.213 9.53137 251.643 8.90657 252.281 8.90657C252.519 8.90657 252.924 8.99846 253.634 9.23122C254.516 9.52525 255.227 9.62938 255.778 9.62938C256.862 9.62938 257.346 9.23122 257.346 9.11484C257.346 8.9372 257.23 8.42878 256.697 8.42878H256.611L256.501 8.43491C255.901 8.43491 255.251 8 255.251 8C254.51 8.06125 252.722 8.6738 252.348 8.80244C251.987 8.92495 250.676 9.48237 250.676 9.48237C250.676 9.48237 249.696 9.60488 249.628 9.78864C249.61 9.85602 249.72 9.88053 249.922 9.88053H249.91Z" fill="#404148"/>
<path d="M238.431 10.0948C238.994 10.4072 239.607 10.6523 240.048 10.7135L240.207 10.7258C240.605 10.7258 241.095 10.542 241.953 10.2173C242.945 9.84369 244.311 9.65993 243.129 9.47616C241.953 9.28627 240.226 8.85749 240.226 8.85749C240.226 8.85749 238.694 8.77173 237.904 8.77173C237.72 8.77173 237.567 8.77785 237.506 8.79011C237.2 8.85749 234.97 8.91261 234.97 9.15763C234.97 9.40265 237.873 9.77631 238.431 10.0887V10.0948Z" fill="#404148"/>
<path d="M204.134 14.3705C204.765 14.6094 205.402 15.2771 206.088 15.2771C206.272 15.2771 206.468 15.2219 206.664 15.1056C207.595 14.5481 207.779 13.5558 207.969 13.5007H208.011C208.299 13.4946 209.561 13.9417 210.498 14.1194C211.491 14.3031 212.171 14.6155 212.851 14.6768L213.206 14.689C214.051 14.689 215.448 14.4991 214.339 13.7518C213.04 12.8881 211.491 13.0719 210.186 12.637C208.9 12.2082 207.534 11.5895 206.915 11.1607C206.535 10.8851 206.082 10.5543 205.806 10.5543C205.629 10.5543 205.531 10.683 205.555 11.0382C205.555 11.0382 205.555 11.5344 205.188 12.1531C204.814 12.7718 204.869 12.4594 204.698 13.078C204.502 13.6967 203.332 14.0704 204.134 14.3828V14.3705Z" fill="#404148"/>
<path d="M210.75 11.4547C211.277 11.4547 211.981 11.3996 212.103 11.3996C212.287 11.3996 213.702 11.2771 216.367 11.1546C219.025 11.0321 217.972 10.5359 216.802 10.2235C215.619 9.91724 215.497 9.7886 215.191 9.66609C215.087 9.62321 214.462 9.61096 213.678 9.61096C212.103 9.61096 209.874 9.66609 209.874 9.66609C209.874 9.66609 209.935 11.271 210.174 11.3935C210.272 11.4302 210.48 11.4486 210.75 11.4486V11.4547Z" fill="#404148"/>
<path d="M200.048 11.8897C200.551 12.1409 201.175 12.8821 201.721 12.9372L201.831 12.9494C202.401 12.9494 203.301 12.5513 203.877 12.2021C204.422 11.8775 204.152 11.0322 203.877 11.0322L203.76 11.0873C203.76 11.0873 203.325 11.2159 202.633 11.2159C202.033 11.2159 201.243 11.1179 200.361 10.781C199.123 10.3032 198.327 10.0276 197.996 10.0276C197.819 10.0276 197.782 10.1072 197.892 10.2849C198.198 10.781 199.558 11.6447 200.048 11.8897Z" fill="#404148"/>
<path d="M182.554 46.0149C183.111 46.9949 183.179 47.4972 183.614 47.9873C184.048 48.4773 184.048 48.2935 183.791 49.0408C183.546 49.7759 183.301 50.2108 182.866 51.5707C182.431 52.9305 181.255 53.3042 182.064 53.5492C182.542 53.7023 183.24 54.076 183.938 54.076C184.391 54.076 184.851 53.9167 185.274 53.4267C186.327 52.1894 186.26 52.0668 187.191 52.0668C187.785 52.0668 188.11 52.2935 188.385 52.2935C188.545 52.2935 188.685 52.2261 188.857 52.0056C189.347 51.3869 189.047 49.4084 188.361 49.0408L188.226 48.9673L188.33 49.0531C188.14 48.9245 187.803 48.7039 187.252 48.3609C187.252 48.3609 187.375 45.7637 186.015 45.0838C184.649 44.4038 185.274 44.8939 184.839 43.4789L184.404 42.0578C184.404 42.0578 183.228 40.7531 182.493 40.7531L182.113 40.9429C181.555 41.7454 180.006 42.4253 180.82 43.7239C181.617 45.0164 181.984 45.0164 182.542 46.0149H182.554Z" fill="#404148"/>
<path d="M175.84 52.471C176.012 52.471 176.288 52.4404 176.692 52.3792C178.977 52.0055 179.595 52.1893 179.718 51.7605C179.84 51.3317 179.963 50.8968 180.453 50.6456C180.949 50.4006 181.451 50.0882 180.949 48.9183C180.465 47.7483 180.827 47.2521 180.036 46.7621C179.822 46.8478 179.393 46.952 178.591 47.0561H178.572L178.321 47.0377L177.935 47.0071C177.507 47.0071 177.047 47.1296 177.047 47.736C177.047 48.7835 177.237 49.8371 177.047 50.2046C176.863 50.5783 176.557 50.7008 176.429 51.3194C176.331 51.8279 175.007 52.4649 175.828 52.4649L175.84 52.471Z" fill="#404148"/>
<path d="M180.005 46.511C179.859 46.511 179.749 46.5782 180.018 46.7432L180.036 46.7554C180.402 46.6088 180.176 46.5049 179.999 46.5049L180.005 46.511Z" fill="#404148"/>
<path d="M145.334 128.427H144.899C144.28 128.433 143.655 127.888 142.853 127.263C142.056 126.651 141.425 125.475 140.139 125.413C138.84 125.352 138.84 124.733 138.099 124.672C137.885 124.66 137.652 124.648 137.419 124.648C136.85 124.648 136.268 124.697 135.87 124.74H135.821C135.337 124.74 135.625 123.925 135.508 123.686C135.38 123.441 132.911 121.836 132.911 121.836C132.911 121.836 131.98 121.714 131.3 121.585C130.62 121.462 130.314 120.905 129.695 119.423C129.064 117.934 129.321 118.314 129.254 118.063C129.199 117.812 128.274 114.479 127.588 113.738C127.3 113.42 126.914 113.328 126.534 113.328C126.02 113.328 125.499 113.487 125.181 113.487C124.623 113.487 122.712 112.44 122.467 112.311C122.216 112.188 119.686 110.957 119.245 110.216C118.81 109.475 118.387 108.795 118.136 107.496C117.891 106.204 117.021 106.694 114.057 105.824C113.267 105.591 112.746 105.512 112.397 105.512C111.423 105.512 111.778 106.173 111.453 106.253L111.306 106.277C110.792 106.277 109.769 105.806 109.603 105.64C109.42 105.463 108.06 104.403 108.06 104.403C107.68 104.648 107.313 104.77 107.313 104.77L106.694 107.68C106.694 107.68 106.626 108.256 106.375 108.256L106.081 108.048C105.585 107.429 107.006 103.411 107.006 103.411C106.571 103.717 106.081 104.152 105.708 104.28C105.334 104.403 103.117 105.205 102.933 105.702C102.743 106.198 101.818 106.933 99.8395 106.933C97.8609 106.933 97.7384 107.619 97.3035 107.803L97.034 107.845C96.4582 107.845 95.3862 107.46 94.7063 106.939C93.9038 106.32 93.5363 102.927 93.4751 102.431C93.4077 101.934 92.299 98.9635 91.7415 97.9834C91.57 97.6833 91.3311 97.573 91.0677 97.573C90.4491 97.573 89.6773 98.1366 89.2056 98.2284C88.9422 98.2713 88.6604 98.3387 88.3909 98.3387C87.9805 98.3387 87.6375 98.1733 87.6007 97.4873C87.5395 96.3724 87.9131 95.0738 87.9744 94.2714C88.0356 93.4689 88.593 92.4153 88.8932 91.8579C89.2117 91.3005 88.5257 90.1305 88.0356 89.7569L87.7845 89.6772C87.2148 89.6772 86.296 90.5226 85.8733 91.0494C85.3772 91.668 85.5609 92.5317 85.3772 93.0279C85.1995 93.5241 83.3986 94.1979 82.9699 94.3204C82.8228 94.3632 82.6268 94.3755 82.4001 94.3755C81.953 94.3755 81.3833 94.3204 80.9301 94.3204C80.2501 94.3204 79.5702 92.2254 79.1414 91.7293C78.7065 91.2331 78.2777 89.2546 78.1552 88.8871C78.0266 88.5195 78.1552 85.7937 78.0939 85.2363C78.0266 84.685 78.2165 83.074 78.0266 82.4002C77.8428 81.7202 79.6376 79.9255 80.44 79.368C80.9974 78.9883 81.7815 78.633 82.8902 78.633C83.3864 78.633 83.9499 78.7065 84.587 78.878C84.8259 78.9454 85.0525 78.976 85.2608 78.976C86.835 78.976 87.6191 77.3589 88.1091 77.0894L88.3113 77.0526C89.1627 77.0526 91.6068 78.3696 92.0601 78.7616C92.5562 79.1904 93.8548 80.9239 94.2898 82.0939C94.7124 83.2332 96.1703 84.2011 96.9421 84.2011H97.0095C97.7507 84.1337 96.452 80.4277 96.452 79.6866C96.452 78.9454 95.5883 77.708 95.4597 77.5181C95.3372 77.3344 95.3985 76.1644 96.887 72.7586C97.4076 71.558 97.8487 71.2273 98.2346 71.2273C98.4673 71.2273 98.6817 71.3559 98.8777 71.4723C99.0799 71.5887 99.2636 71.7234 99.4474 71.7234C99.6312 71.7234 99.8027 71.5887 99.9742 71.215C100.771 69.4876 101.334 68.189 100.838 67.2028C100.342 66.2166 101.824 65.1018 101.953 64.6056C102.075 64.1156 103.435 63.0068 105.475 62.5045C107.509 62.0084 107.386 61.8246 108.685 59.9686C109.873 58.2657 108.256 57.3469 108.697 57.3469L108.875 57.3714C109.793 57.5551 110.296 57.6777 113.077 57.6777C115.858 57.6777 116.66 54.7129 116.66 54.7129C116.66 54.7129 115.986 54.1555 115.613 53.788C115.239 53.4143 114.436 52.177 113.64 51.5032C113.334 51.2459 113.028 51.1724 112.703 51.1724C112.501 51.1724 112.293 51.1969 112.09 51.2336C111.882 51.2581 111.68 51.2888 111.472 51.2888L111.104 51.252C110.241 51.0682 109.622 49.3347 110.853 48.3424C111.245 48.03 111.852 47.932 112.574 47.932C113.218 47.932 113.953 48.0116 114.7 48.0974C115.441 48.177 116.195 48.2628 116.874 48.2628C117.126 48.2628 117.364 48.2505 117.597 48.226C119.753 47.981 119.882 47.0499 121.175 46.4925C121.383 46.3945 121.536 46.3577 121.634 46.3577C122.149 46.3577 121.364 47.4113 121.107 48.0361C120.801 48.7773 120.488 49.0897 119.012 51.2459C117.904 52.863 118.345 53.0652 118.639 53.0652L118.822 53.0407L124.384 51.3133C124.384 51.3133 124.078 49.151 123.704 48.8447C123.331 48.5384 123.772 46.37 123.888 45.9412C124.017 45.5063 124.323 44.8876 124.194 44.3915C124.072 43.9014 123.331 42.4129 122.651 41.6779C121.971 40.9306 118.204 39.2644 117.83 38.7683C117.456 38.2782 117.334 35.9873 116.844 34.8112C116.354 33.6412 114.43 33.3288 114.118 33.2737H114.087C113.799 33.2737 113.683 33.9475 112.207 35.2522C111.796 35.6075 111.496 35.7484 111.263 35.7484C110.608 35.7484 110.498 34.6703 110.228 34.2599C109.855 33.7025 109.365 33.5187 107.943 31.7301C107.337 30.9766 106.921 30.799 106.43 30.799C106.216 30.799 105.996 30.8296 105.732 30.8664C105.469 30.897 105.181 30.9337 104.832 30.9337C104.427 30.9337 103.95 30.8847 103.362 30.7377C102.333 30.4805 101.947 30.4008 101.726 30.4008C101.346 30.4008 101.383 30.6152 99.6557 30.6152C96.8747 30.6152 99.282 32.0976 98.7185 32.9613C98.1733 33.8311 99.0309 34.6948 99.5332 35.3073C100.023 35.926 99.7782 35.926 100.581 38.0271C101.383 40.1281 100.268 39.0807 99.4658 40.6855C98.9145 41.782 98.547 41.9535 98.3632 41.9535L98.2284 41.9229C98.2284 41.9229 98.4122 42.4129 98.7185 44.3915C99.0309 46.37 98.7185 45.0714 98.4122 46.1862C98.2284 46.8539 98.0876 46.9213 97.769 46.9213H97.4934C97.3157 46.9213 97.0952 46.9213 96.8135 46.9887C96.5501 47.0438 96.3908 47.0683 96.2989 47.0683C95.9743 47.0683 96.3234 46.8049 95.9497 46.615C95.4474 46.37 94.2163 44.0791 93.2239 42.6028C92.2377 41.1204 92.4276 41.3655 91.4353 40.808C90.4491 40.2568 90.0142 40.318 88.2806 39.6319C86.5533 38.952 86.7983 39.5094 84.8197 39.0194C82.8473 38.5171 83.3374 37.782 82.8473 37.1572C82.3512 36.5386 81.5487 35.1787 81.175 34.6274C80.8075 34.07 80.6176 32.5876 80.6176 32.5876C80.6176 32.5876 81.2976 32.0302 82.2899 31.5953C83.2761 31.1604 84.3297 30.0517 85.0096 28.8756C85.2669 28.4407 85.4139 28.3059 85.5915 28.3059C85.8978 28.3059 86.2898 28.6918 87.4231 28.6918C89.2117 28.6918 90.0203 25.6046 90.0203 25.6046C90.0203 25.6046 92.4888 24.6796 92.7339 24.6796C92.9789 24.6796 94.5899 24.3121 95.2086 23.8772C95.8273 23.4484 94.7798 22.3948 94.4061 21.7149C94.0325 21.0411 95.4597 20.2999 95.8334 20.2386C96.207 20.1774 97.5608 18.8726 97.9957 18.6889L98.1182 18.6644C98.4796 18.6644 98.6879 19.3994 98.8042 19.62C98.9268 19.865 98.8042 19.62 103.313 20.9798C107.821 22.3397 104.85 22.0885 105.536 22.3397C106.216 22.5847 104.917 23.6934 104.544 24.2508C104.176 24.8082 102.627 26.2232 101.15 26.407C99.6679 26.5969 100.158 27.5831 100.158 27.5831H103.135C103.625 27.5831 104.121 28.263 105.793 28.8817C107.453 29.4943 107.515 29.5616 108.323 30.3028C108.642 30.5968 109.242 30.6887 109.848 30.6887C110.749 30.6887 111.662 30.4866 111.662 30.4866C111.662 30.4866 110.553 29.9353 109.928 29.3779C109.536 29.0226 109.799 28.8695 110.234 28.8695C110.473 28.8695 110.773 28.9246 111.043 29.0042C111.165 29.0471 111.313 29.0655 111.478 29.0655C112.28 29.0655 113.389 28.6367 113.389 28.6367C113.389 28.6367 112.96 27.4055 112.342 27.0931C111.723 26.7868 110.424 25.6719 110.179 24.6184C110.081 24.1957 110.234 24.0364 110.492 24.0364C110.871 24.0364 111.46 24.3978 111.717 24.8082C112.146 25.4759 114.283 26.7868 114.724 26.7868H114.755C115.123 26.7255 115.864 25.4882 116.299 25.1145C116.727 24.747 118.461 24.3121 116.415 23.822C114.375 23.3259 114.008 22.6459 112.335 22.211C110.669 21.7761 110.357 21.4637 109.738 20.5449C109.126 19.6138 108.568 19.1238 108.568 19.1238C108.568 19.1238 107.453 18.5051 106.896 18.1315C106.345 17.7578 104.917 16.4041 102.259 16.3367C99.6006 16.2754 101.273 16.3367 98.5531 15.9692C95.8334 15.6016 97.1932 15.1606 96.7032 14.6032C96.5317 14.4255 96.2989 14.3582 96.0355 14.3582C95.5087 14.3582 94.8594 14.6032 94.4061 14.6032C93.7323 14.6032 93.8549 14.7931 92.3112 15.473C91.7599 15.718 91.4659 15.7915 91.3189 15.7915C91.0555 15.7915 91.2576 15.5342 91.2576 15.5342C91.2576 15.5342 90.835 14.4868 89.6589 14.4868C88.4828 14.4868 87.4966 15.3505 87.1842 15.5955C86.8779 15.8405 87.7416 18.4377 88.4154 18.8665C89.1014 19.3014 90.1489 19.7363 90.2714 20.4775C90.3878 21.1575 89.8181 21.7884 88.6175 21.7884L88.2929 21.7761C86.8779 21.6475 86.4369 21.4025 85.8856 21.0349C85.3281 20.6613 85.1444 20.11 84.5257 19.0564C83.9132 18.0028 83.7784 17.329 82.296 16.9492C81.9959 16.8757 81.7264 16.8451 81.4936 16.8451C80.5625 16.8451 80.1092 17.3474 80.0051 17.6965C79.8887 18.1253 81.1138 20.2325 81.1138 20.2325H81.0709C80.9545 20.2325 80.7095 20.159 80.2685 20.0732C79.8275 19.9936 79.1904 19.914 78.2838 19.914H77.8428C75.558 19.9814 77.9653 20.6 77.9041 21.7087C77.8734 22.211 77.6284 22.3274 77.2976 22.3274L76.8566 22.2845C76.6912 22.2662 76.5258 22.2478 76.3604 22.2478C76.195 22.2478 76.0235 22.2662 75.8581 22.3274C75.6438 22.4009 75.2823 22.4377 74.8536 22.4377C73.6346 22.4377 71.8153 22.1865 70.8536 22.1375H70.4861C69.4447 22.1314 68.9976 22.3703 68.4402 22.7562C68.2441 22.891 67.9501 22.9645 67.4846 22.9645C66.4494 22.9645 64.5811 22.6214 61.206 21.8986C59.0743 21.4392 58.425 21.3106 58.376 21.3106L59.2274 21.525C59.2274 21.525 54.8477 20.7225 53.2979 19.9201C52.6486 19.5832 52.2934 19.4852 52.1035 19.4852C51.834 19.4852 51.8768 19.6751 51.8768 19.6751C51.8768 19.6751 51.2581 19.9814 49.7696 20.4163C49.2551 20.5694 48.9121 20.6245 48.6487 20.6245C48.1525 20.6245 47.9504 20.4408 47.4175 20.355C46.615 20.2386 47.0316 19.2769 45.2245 19.2279H44.9673C43.3501 19.2279 42.7315 19.6567 41.194 19.7363C39.5707 19.8282 37.2063 20.6613 36.557 20.8083L36.3548 20.8206C35.4299 20.8206 32.6856 20.11 31.3625 19.5526C29.923 18.9462 23.8527 18.9461 23.528 18.6705C23.2034 18.3949 17.2188 18.4439 14.8543 18.3949C12.4899 18.352 13.4639 18.254 13.1821 18.254C12.9003 18.254 10.444 18.4439 10.1683 18.6276C9.89268 18.8175 8.49606 19.4668 7.52211 20.0181C6.54815 20.5755 3.20977 21.4086 3.20977 21.4086C3.20977 21.4086 3.71818 21.5005 4.37361 21.5434C5.01679 21.5924 5.10867 21.9231 6.13776 23.1666C7.15459 24.4223 7.79776 24.6061 7.663 24.7041C7.52824 24.796 6.36439 24.796 5.43944 24.796C4.51449 24.796 4.41037 24.894 3.07501 24.9308C1.7274 24.9798 1.91116 25.7209 1.8254 26.1865C1.7274 26.6459 2.23581 26.8358 3.16689 27.3381C3.38128 27.4606 3.58954 27.5096 3.79168 27.5096C4.44099 27.5096 5.01678 27.0012 5.76409 26.7868C6.00299 26.7194 6.18063 26.6888 6.33989 26.6888C6.84218 26.6888 7.20359 26.9338 8.77784 26.9705C10.8605 27.0134 8.9616 27.9445 8.72883 28.8266C8.48994 29.7086 7.0137 29.2002 5.5742 29.6596C4.14084 30.1252 3.95096 30.4927 2.98313 31.0991C2.00305 31.6994 4.4655 32.998 5.84986 33.3656C7.24647 33.7392 8.96161 34.9031 11.1362 34.9031C13.3107 34.9031 12.5266 35.5034 12.4348 36.1527C12.3429 36.802 11.7426 37.2185 11.1362 38.1006C10.5359 38.9826 8.72884 39.2154 8.03053 39.4972C7.33223 39.7728 6.22351 40.7039 5.80698 40.9734C5.38432 41.2552 3.25876 41.9474 2.14392 42.2292C1.03521 42.5109 0.379793 43.1541 0.012263 43.5216L0 43.7054C0.18989 43.7054 0.673806 43.5216 1.03521 43.344C1.59263 43.0622 3.53442 42.7805 5.67221 41.5309C7.80389 40.2813 10.4011 39.2154 12.7227 38.3333C15.032 37.4513 14.7625 37.2185 16.2019 36.2017C17.6353 35.1848 16.8451 34.8541 17.0779 33.9781C17.3107 33.096 17.3597 33.4697 18.0518 32.6366C18.2724 32.3671 18.5174 32.2691 18.744 32.2691C19.2463 32.2691 19.6874 32.7346 19.7119 33.0532C19.7609 33.5126 18.2356 34.4865 18.2356 34.6213C18.2356 34.6642 18.352 34.6948 18.5419 34.6948C18.9645 34.6948 19.7302 34.5417 20.2754 34.0639C20.6613 33.727 21.3229 33.6412 22.0947 33.6412C22.9094 33.6412 23.8588 33.7392 24.7286 33.7392C26.3948 33.7392 28.6612 34.4804 29.9169 34.6703C31.1665 34.8541 33.2492 36.6182 33.8556 36.7101C34.4559 36.7958 34.9153 37.0776 36.3609 37.7269C37.7943 38.3762 37.3839 38.7499 38.119 39.7667C38.8663 40.7835 38.5416 40.7835 39.2828 42.7804C40.024 44.7774 40.3486 44.9182 41.1388 45.2368C41.3042 45.3042 41.4084 45.3409 41.4574 45.3409C41.6166 45.3409 41.1205 44.9182 41.0469 44.4466C40.9551 43.8463 40.9061 43.246 40.6304 42.1802C40.3486 41.1143 40.171 40.465 40.5875 40.0485L40.7652 39.9382C40.9857 39.9382 41.1021 40.7468 42.3884 42.6457C43.9627 44.9611 43.2215 43.4788 43.8769 44.5875C44.5201 45.6962 44.7529 46.1679 44.4282 46.9519C44.1036 47.7421 45.4022 48.0239 45.8616 48.5323C46.3271 49.0407 46.8355 49.9167 47.2521 50.9886C47.6686 52.0545 47.7605 52.2872 48.4159 53.4021C49.0652 54.5108 49.1571 56.5996 49.1571 58.0758C49.1571 59.5521 48.471 60.5383 48.5139 61.549C48.5629 62.5719 49.1571 62.8537 50.3638 66.0022C51.5705 69.1507 51.3378 67.7112 53.0039 69.9409C53.9595 71.2089 54.2474 71.3988 54.4434 71.3988L54.5659 71.3804L54.6884 71.3681L54.9947 71.4723C55.6869 71.8888 55.4602 72.0297 56.4342 73.5611C57.402 75.0924 57.0774 74.486 57.8186 76.342C58.5659 78.1981 59.307 79.5885 59.4418 80.048C59.5827 80.5135 60.4219 81.3956 61.157 82.1796C61.9043 82.9637 61.8553 83.2455 62.0758 84.5012C62.3147 85.7569 62.0758 85.4323 63.4234 86.4491C64.2258 87.0617 64.4831 87.2025 64.6607 87.2025C64.7832 87.2025 64.8568 87.1352 65.0528 87.0984C65.5122 87.0065 64.918 86.4001 64.6301 85.7937C64.3545 85.1995 63.5643 84.3174 63.5643 83.9009C63.5643 83.4844 63.2886 82.7861 62.7312 82.2776C62.1738 81.7631 62.1248 81.3956 62.0758 80.7401C62.039 80.0908 60.8323 78.7494 60.4586 78.3267C60.0972 77.9163 59.2642 76.5687 59.0743 75.8704C58.9395 75.3742 59.3744 75.3068 59.6807 75.3068L59.9502 75.3191C60.0911 75.3191 61.3407 76.9913 61.3407 77.2241C61.3407 77.4569 62.4065 78.5227 63.0558 79.5396C63.699 80.5625 63.1967 80.6054 64.5382 81.8121C65.261 82.4614 65.2978 82.5288 65.2733 82.5288H65.261H65.2488C65.2488 82.5288 65.2733 82.5594 65.457 82.6942C66.0573 83.1597 66.0206 83.6191 66.3391 84.2256C66.6638 84.8259 66.676 85.6957 68.1033 86.7431C69.5244 87.7967 69.7755 90.6389 69.7081 91.6252C69.6469 92.6175 70.6331 92.9238 70.9455 93.4812C71.2579 94.0386 72.2441 94.7798 73.1752 95.0922C74.1062 95.3923 75.2149 96.2009 77.1935 97.6833C77.6896 98.0569 78.1674 98.2039 78.6207 98.2039C79.9561 98.2039 81.0403 96.9605 81.6406 96.8196L81.7448 96.8073C82.5043 96.8073 83.1597 98.6266 85.2853 100.219C86.5778 101.193 86.9698 101.408 87.3128 101.408C87.5517 101.408 87.7661 101.291 88.25 101.267H88.2868C89.4384 101.267 89.6282 104.195 91.472 106.087C93.3342 108.005 94.939 108.623 94.9942 108.93C95.0125 109.009 95.1657 109.046 95.3985 109.046C96.0416 109.046 97.3464 108.77 98.2101 108.501C98.4612 108.421 98.6572 108.385 98.7981 108.385C99.3617 108.385 99.3556 108.905 99.6986 109.732C100.127 110.78 100.372 112.458 100.434 114.308C100.501 116.158 99.2698 117.028 98.7001 117.462C98.155 117.897 97.279 119.937 96.9727 121.107C96.6665 122.283 96.4153 123.766 97.034 124.39C97.6526 125.003 96.6664 125.622 96.2315 126.92C95.8027 128.219 96.6664 128.648 97.2177 129.701C97.7751 130.755 99.4474 134.834 100.44 137.364C101.426 139.9 102.596 142.185 103.839 143.416C105.071 144.66 106.865 146.326 107.6 146.571C108.354 146.822 107.668 158.191 107.11 160.61C106.553 163.018 106.124 166.234 106.675 167.9C107.239 169.572 106.498 170.865 106.498 172.353C106.498 173.842 104.525 177.106 104.213 178.411C103.901 179.698 104.084 181.933 104.642 183.232C105.199 184.531 104.268 186.938 103.901 187.863C103.533 188.788 103.031 189.155 103.098 189.719C103.153 190.27 103.098 191.881 103.098 192.561C103.098 193.241 103.717 198.007 104.519 198.864C105.316 199.722 106.553 200.469 108.225 201.4C108.893 201.768 109.469 201.878 109.959 201.878C110.694 201.878 111.233 201.615 111.564 201.584C112.121 201.517 111.006 199.912 110.7 199.795C110.381 199.673 109.401 197.627 109.089 196.512C108.783 195.409 108.911 195.091 109.401 194.111C109.591 193.719 109.732 193.615 109.848 193.615L110.032 193.688L110.222 193.749L110.388 193.676C110.761 193.37 111.564 192.132 112.121 191.452C112.678 190.772 111.312 189.596 110.822 189.161C110.326 188.733 111.257 187.183 112.427 186.509C113.61 185.829 112.985 185.633 113.358 184.647C113.732 183.661 114.038 182.92 113.671 182.92C113.303 182.92 113.113 181.682 113.175 181.008C113.211 180.659 113.377 180.549 113.628 180.549C113.861 180.549 114.173 180.641 114.535 180.702C114.712 180.727 114.908 180.739 115.092 180.739C115.698 180.739 116.274 180.592 116.329 180.261C116.384 179.832 116.384 178.901 116.139 178.038C115.894 177.174 118.792 177.29 119.539 177.235C120.28 177.174 120.899 176.561 121.579 175.875C122.259 175.195 122.449 174.632 122.13 173.829C121.824 173.027 121.769 172.904 121.266 172.041C120.917 171.434 121.064 171.348 121.181 171.348L121.266 171.367C121.266 171.367 122.626 171.802 123.184 171.802C123.741 171.802 125.101 170.871 126.271 169.701C127.447 168.525 128.066 167.906 129.119 166.613C130.167 165.315 130.54 164.629 130.969 163.643C131.404 162.656 131.894 162.032 131.778 160.923C131.655 159.814 132.825 155.98 134.001 155.3C135.184 154.62 137.897 154.687 138.583 153.45C139.257 152.206 139.447 151.165 139.876 149.805C140.311 148.445 141.732 144.549 141.548 142.387C141.364 140.225 142.663 138.798 143.526 137.628C144.39 136.445 144.335 136.507 145.315 135.024C146.307 133.542 146.24 133.107 146.307 132.182C146.363 131.257 146.056 129.156 146.056 128.789C146.056 128.507 145.738 128.464 145.315 128.464L145.334 128.427Z" fill="#404148"/>
<path d="M155.833 17.5557C155.833 17.5557 155.459 16.2264 156.929 16.2264L157.315 16.2571C158.405 16.3979 159.33 16.6858 159.784 16.6858C160.127 16.6858 160.194 16.5205 159.839 16.012C159.042 14.8359 158.485 14.2785 158.418 13.911C158.362 13.5435 160.647 12.2449 161.266 11.4363C161.878 10.6339 162.436 8.34905 162.313 7.23421C162.191 6.12549 161.382 5.07191 163.293 4.637C165.211 4.20209 167.379 4.20209 168.739 3.70592C170.099 3.20976 170.528 3.08725 170.405 2.71972C170.283 2.34606 167.44 2.1623 165.584 2.1623C164.488 2.1623 163.698 2.33381 162.846 2.33381C162.252 2.33381 161.646 2.25418 160.892 1.97853C159.036 1.2986 156.5 0.624798 154.522 0.496162C153.162 0.40428 152.035 0.238892 150.289 0.238892C149.487 0.238892 148.549 0.275645 147.41 0.373653C143.765 0.679927 138.638 1.17609 136.776 1.2986C134.92 1.42111 135.233 1.35986 130.038 1.72739C128.684 1.82539 127.337 1.86215 126.075 1.86215C124.654 1.86215 123.343 1.81927 122.247 1.77639C121.15 1.73351 120.274 1.69063 119.729 1.69063C119.447 1.69063 119.251 1.70288 119.159 1.72739C118.534 1.91728 117.365 2.59721 117.799 3.27101L117.616 3.58341C117.616 3.58341 112.979 4.07345 112.36 4.14083C111.741 4.19596 111.306 4.44711 111.803 4.637C112.299 4.81464 113.665 5.19442 113.665 5.68446C113.665 6.1745 113.542 6.7993 112.801 7.10557C112.458 7.24646 111.447 7.28321 110.437 7.28321C109.23 7.28321 108.042 7.22808 108.042 7.22808L107.294 7.96927C107.294 7.96927 109.555 8.59407 110.565 8.59407H110.7L110.933 8.58182C111.57 8.58182 111.306 8.83909 111.251 9.45164C111.208 9.93555 112.954 10.0458 114.069 10.0458C114.522 10.0458 114.865 10.0336 114.957 10.0091H115.006C115.515 10.0091 118.326 10.6951 119.037 10.8176L119.27 10.8299L119.551 10.8176L119.864 10.8054C120.342 10.8054 120.862 10.9646 121.567 12.0488C122.681 13.7824 122.988 15.5098 124.286 15.9447C125.585 16.3796 125.585 16.2509 126.197 16.3796C126.822 16.5021 123.472 16.1958 124.721 17.2433C125.285 17.7272 125.769 17.8129 126.228 17.8129L126.645 17.7946L127.037 17.7823C127.276 17.7823 127.514 17.8129 127.747 17.9232C128.678 18.3581 129.113 19.3443 128.923 20.2754C128.74 21.2003 127.067 22.3764 126.449 23.1176C125.83 23.8588 124.899 24.2937 125.028 24.9063C125.15 25.5249 127.067 26.7684 127.998 27.6934C128.929 28.6183 130.038 30.0394 130.589 30.5968C131.147 31.1481 131.208 30.7194 133.309 31.7056C135.086 32.5448 135.937 32.8449 136.599 32.8449L136.954 32.8143C137.695 32.6979 139.429 30.9583 139.612 30.2171C139.796 29.4698 140.17 27.6872 140.911 27.1298C141.652 26.5724 141.395 25.2125 144.311 25.0226C147.208 24.8389 149.75 23.7302 150.608 23.1727C151.471 22.6153 150.853 22.2478 154.191 21.6843C157.523 21.1268 159.318 21.0104 158.889 20.0794C158.454 19.1544 155.796 17.5495 155.796 17.5495L155.833 17.5557Z" fill="#404148"/>
<path d="M48.0422 16.8329L48.4281 16.8145C49.8553 16.6246 50.0942 16.2571 50.6516 16.0121C51.209 15.767 50.3453 15.3321 52.1401 15.1422C53.3713 15.0197 53.8736 14.7992 54.2718 14.7992C54.4555 14.7992 54.6087 14.8421 54.7986 14.9585C55.4234 15.3321 56.2136 15.8834 54.9211 16.4409C53.6225 16.9983 52.8813 17.182 55.0436 17.7395C56.5137 18.1192 57.1263 18.2417 57.604 18.2417C57.8246 18.2417 58.0206 18.2172 58.2534 18.1744L58.431 18.1621C59.2947 18.1621 61.1446 18.8604 60.9179 18.9768C60.6668 19.0993 60.5382 19.2831 58.5658 19.2831C57.2488 19.2831 56.5933 18.793 56.2809 18.793C56.1217 18.793 56.0543 18.9156 56.0359 19.2831C55.9747 20.3918 58.7556 19.8405 60.3054 20.5204C61.4019 20.9982 59.9991 21.6108 61.0282 21.6108C61.4509 21.6108 62.2717 21.5128 63.8276 21.2555C67.4722 20.6674 68.7892 20.3918 69.6284 20.3918C70.0204 20.3918 70.3145 20.4531 70.682 20.5756C71.3803 20.7961 73.2363 21.2249 74.247 21.2249C74.9515 21.2249 75.2394 21.0227 74.4553 20.3857L70.8167 18.7195C70.8167 18.7195 68.5258 17.4822 68.0297 16.6185C67.5335 15.7548 67.2333 14.8911 66.7372 14.8298H66.6514C66.2288 14.8237 66.1001 15.2893 65.8673 15.7548C65.7081 16.0672 65.7326 16.349 65.1935 16.349C64.875 16.349 64.3666 16.251 63.5274 15.9998C61.2426 15.3199 55.8583 13.8988 55.8583 13.8988C55.8583 13.8988 53.5796 12.7227 53.0834 12.6614L52.9426 12.6492C52.2749 12.6492 50.4127 12.9799 49.5552 13.1515L49.3285 13.176C49.1264 13.176 48.9916 13.1086 48.8875 13.0412L48.6057 12.9126C48.4832 12.9126 48.3423 13.029 48.0728 13.4026C47.3255 14.4562 47.0805 15.0749 47.0805 15.6262C47.0805 16.1285 47.0314 16.8268 48.0544 16.8268L48.0422 16.8329Z" fill="#404148"/>
<path d="M73.0894 15.8835C73.2426 16.5573 74.6576 17.0534 75.5458 17.0534C75.7173 17.0534 75.8765 17.0351 75.9929 16.9983C76.7341 16.7533 78.6514 16.8145 78.5228 16.3184C78.4064 15.8283 77.1629 14.7135 76.4278 14.6522C75.6866 14.591 74.7556 14.2786 74.7556 14.2786C74.7556 14.2786 75.0006 13.5435 74.1369 13.2985L74.0756 13.2863C73.6959 13.2863 72.5933 13.8743 72.5933 14.2173C72.5933 14.5849 74.0818 15.3934 74.0818 15.3934C74.0818 15.3934 73.8612 15.3322 73.6223 15.3322C73.3161 15.3322 72.9853 15.4363 73.0894 15.8896V15.8835Z" fill="#404148"/>
<path d="M80.8749 6.4869C83.0433 7.10557 84.8381 7.90801 85.2056 7.90801C85.4078 7.90801 85.8305 7.63849 86.1061 7.63849C86.3205 7.63849 86.4552 7.81001 86.3082 8.40418C86.002 9.76404 84.9545 11.3138 84.9545 11.3138C84.9545 11.3138 88.1336 9.99068 90.2163 9.99068C90.3878 9.99068 90.5471 9.99681 90.6941 10.0152C92.1887 10.1928 92.2928 10.4378 93.6282 10.4378C94.1305 10.4378 94.7982 10.4072 95.7599 10.3215C99.3433 10.0152 101.628 9.02898 101.628 7.85288C101.628 6.67679 99.5944 6.61554 103.552 5.43944C107.502 4.26334 107.686 4.26334 110.222 3.33227C112.758 2.41345 112.58 2.03366 113.567 1.78864C114.553 1.54362 114.982 0.92495 114.982 0.92495C114.982 0.92495 110.528 0.3124 107.852 0.3124C107.435 0.3124 107.074 0.330777 106.755 0.36753C105.236 0.532918 104.238 0.643177 103.227 0.643177C102.718 0.643177 102.21 0.618675 101.634 0.55742C99.9068 0.373655 95.3311 0 95.3311 0C95.3311 0 93.6037 0.12251 92.0539 0.735059C90.5164 1.35373 86.1919 2.09492 85.1321 2.28481C84.0847 2.46245 84.146 2.65234 85.0709 3.08725C86.002 3.52216 86.6758 3.83456 87.4169 4.3246C88.1581 4.81464 89.5792 5.24955 88.0356 5.3108L87.5885 5.32306C86.2776 5.32306 85.2975 5.05353 84.5747 4.38585C83.7723 3.64467 83.6498 3.45478 83.0372 3.45478C82.7126 3.45478 82.1429 3.32002 81.61 3.32002C81.1016 3.32002 80.6177 3.4364 80.3849 3.88356C79.8826 4.80851 78.7065 5.85597 80.8749 6.48077V6.4869Z" fill="#404148"/>
<path d="M70.0572 7.54052C72.0847 7.82229 72.3175 8.10406 72.9545 8.10406L73.1567 8.09181C73.9591 8.03056 75.0066 7.41801 75.0066 7.41801C75.0066 7.41801 72.7156 6.37055 71.6743 6.30317C70.9392 6.26029 70.6574 5.97852 70.4063 5.97852L70.0572 6.18066C69.6284 6.67682 67.8336 7.22812 70.0572 7.54052Z" fill="#404148"/>
<path d="M81.12 11.8039C83.3436 12.5451 82.2961 12.4287 84.2746 12.7962C85.5793 13.0412 87.074 13.3965 88.4522 13.3965C89.1628 13.3965 89.855 13.2924 90.4614 13.0474C91.8335 12.4838 92.6972 12.055 93.3894 12.055C93.6037 12.055 93.7937 12.0918 93.9774 12.1776C94.5471 12.4409 96.0417 13.2556 96.8013 13.2556C97.1137 13.2556 97.3097 13.1209 97.2607 12.735C97.1382 11.9142 96.6236 11.761 96.25 11.761C96.0478 11.761 95.8947 11.81 95.8947 11.81C95.8947 11.81 92.8687 11.418 91.3006 11.418C90.8044 11.418 90.4553 11.4609 90.394 11.565C90.2103 11.8897 87.9622 12.4042 86.2593 12.4042C85.6529 12.4042 85.1199 12.3429 84.7769 12.1776C83.4109 11.565 82.2961 11.32 82.3574 10.6339C82.4186 9.96012 83.411 9.45783 82.3574 9.21281C81.3099 8.96779 79.3926 8.28174 79.3926 8.28174C79.3926 8.28174 77.9776 9.33532 78.4677 9.58034C78.9638 9.83149 78.9026 11.0688 81.1261 11.8039H81.12Z" fill="#404148"/>
<path d="M56.275 11.0014C56.1586 11.2464 56.4036 12.7288 56.8324 12.7288C57.108 12.7288 57.4449 12.8513 58.0575 12.8513C58.425 12.8513 58.8906 12.8023 59.4909 12.6675C61.0958 12.2939 60.1647 12.4837 62.3331 12.1101C63.2887 11.9447 64.0605 11.8896 64.6853 11.8896C65.4632 11.8896 66.0023 11.9753 66.3576 12.0427L66.7067 12.0672C67.6317 12.0672 69.5367 11.7793 69.7511 11.6691C69.9961 11.5465 69.6286 11.0565 69.6286 11.0565C69.6286 11.0565 66.1615 10.6216 65.7266 10.6216C65.3468 10.6216 65.353 10.0397 65.0099 10.0397L64.8629 10.0703C64.3729 10.2602 63.742 10.7502 62.2045 10.8176H61.9104C60.6241 10.8176 60.3607 10.444 58.8661 10.444C57.2612 10.444 56.3975 10.7502 56.2689 11.0014H56.275Z" fill="#404148"/>
<path d="M51.3377 10.5052C51.9564 10.7196 52.8017 11.032 53.5122 11.032C53.8614 11.032 54.186 10.9524 54.4249 10.7502C55.1722 10.1377 56.5934 9.02895 56.8996 8.90032C57.2059 8.77781 57.6408 8.03662 57.6408 8.03662C57.6408 8.03662 56.0972 8.46541 55.2335 8.6553C54.3698 8.84519 53.0099 9.15146 53.0099 9.15146C53.0099 9.15146 50.4189 10.1989 51.3438 10.5113L51.3377 10.5052Z" fill="#404148"/>
<path d="M69.9409 9.8804C69.9409 9.8804 70.6209 9.94778 71.4846 10.8176C72.3483 11.6752 72.4769 11.9263 73.4018 11.9263C73.8613 11.9263 73.9225 11.8467 74.1369 11.8467C74.3513 11.8467 74.7249 11.9263 75.8092 12.2387C77.6346 12.7594 78.6698 13.28 78.9454 13.28L79.0189 13.2249C79.0189 12.9799 79.0863 12.79 78.5228 12.1713C77.9654 11.5588 76.1215 10.4439 76.1215 10.4439C75.8091 10.3827 73.0282 9.39648 73.0282 9.39648L69.9348 9.88652L69.9409 9.8804Z" fill="#404148"/>
<path d="M61.6897 8.5144C61.8612 8.5144 62.0572 8.47765 62.2716 8.40414C63.6927 7.90798 64.0603 7.03816 64.0603 7.03816L64.679 6.36435L63.7479 5.92944C63.4416 5.92944 62.143 6.18059 61.7142 6.73188C61.2793 7.2893 60.532 7.54045 60.532 7.54045C60.532 7.54045 60.7586 8.5144 61.6897 8.5144Z" fill="#404148"/>
<path d="M167.722 27.6444C168.133 27.7547 168.512 27.8527 168.788 27.8527C169.186 27.8527 169.37 27.6321 169.143 26.8787C168.721 25.476 167.575 24.5878 166.485 24.5878C165.995 24.5878 165.523 24.7654 165.125 25.1513C165.125 25.1513 164.451 25.329 162.46 25.5801C162.142 25.623 161.848 25.6352 161.584 25.6352C161.29 25.6352 161.027 25.6169 160.8 25.5985C160.574 25.574 160.378 25.5617 160.218 25.5617C159.802 25.5617 159.575 25.6781 159.496 26.1926C159.306 27.3014 159.802 26.6949 160.849 27.6138C161.725 28.3856 162.044 29.2064 162.552 29.2064L162.889 29.0961C163.636 28.6612 164.617 27.9262 165.97 27.4851C166.13 27.4361 166.289 27.4177 166.46 27.4177C166.865 27.4177 167.293 27.5219 167.71 27.6321L167.722 27.6444Z" fill="#404148"/>
</svg>
