<svg width="390" height="264" viewBox="0 0 390 264" fill="none" xmlns="http://www.w3.org/2000/svg">
<path opacity="0.7" d="M227.157 140.746C223.688 147.241 219.068 151.76 215.079 154.769C211.409 157.54 206.9 159 202.29 159H146.447C125.089 159 103.732 159 82.3844 159C78.7349 159 75.1453 158.086 71.9757 156.299C66.9363 153.458 60.0371 148.204 55.7676 139.206C54.4277 136.386 49.4883 125.54 53.6078 112.659C54.4377 110.047 57.5574 100.78 67.2262 94.454C76.0052 88.7135 85.0541 88.7433 89.4836 89.2001C90.8134 89.3392 92.0433 88.5347 92.4733 87.2833C94.753 80.639 99.4524 70.6577 109.241 62.7918C128.759 47.0997 159.305 47.1891 178.743 62.3449C188.092 69.6347 192.791 78.7917 195.101 84.5918C195.531 85.6644 196.551 86.3597 197.711 86.3795C202.17 86.4689 209.15 87.3826 215.959 91.7327C232.147 102.082 232.027 122.054 231.997 123.375C231.807 131.887 228.597 138.054 227.167 140.726L227.157 140.746Z" fill="#B7B7B7"/>
<path opacity="0.7" d="M289.579 73.8728C287.844 77.1204 285.534 79.3799 283.539 80.8846C281.705 82.27 279.45 83 277.145 83H249.223C238.545 83 227.866 83 217.192 83C215.367 83 213.573 82.5431 211.988 81.6493C209.468 80.2291 206.019 77.6021 203.884 73.1031C203.214 71.6928 200.744 66.2701 202.804 59.8294C203.219 58.5234 204.779 53.8902 209.613 50.727C214.003 47.8567 218.527 47.8716 220.742 48.1001C221.407 48.1696 222.022 47.7673 222.237 47.1417C223.376 43.8195 225.726 38.8288 230.621 34.8959C240.379 27.0499 255.653 27.0946 265.372 34.6724C270.046 38.3174 272.396 42.8959 273.551 45.7959C273.766 46.3322 274.276 46.6798 274.855 46.6898C277.085 46.7345 280.575 47.1913 283.979 49.3664C292.073 54.5408 292.013 64.5271 291.998 65.1875C291.903 69.4433 290.299 72.527 289.584 73.8629L289.579 73.8728Z" fill="white"/>
<path opacity="0.7" d="M300.001 210.351C295.702 218.41 289.979 224.017 285.037 227.751C280.49 231.189 274.904 233 269.193 233H200.009C173.55 233 147.09 233 120.643 233C116.122 233 111.674 231.866 107.748 229.648C101.504 226.124 92.957 219.605 87.6676 208.441C86.0077 204.941 79.8883 191.485 84.9919 175.503C86.0201 172.262 89.8849 160.765 101.864 152.915C112.74 145.793 123.95 145.83 129.438 146.396C131.086 146.569 132.609 145.571 133.142 144.018C135.966 135.774 141.788 123.39 153.916 113.631C178.096 94.1608 215.939 94.2717 240.021 113.076C251.603 122.121 257.425 133.482 260.286 140.679C260.819 142.01 262.083 142.872 263.52 142.897C269.044 143.008 277.691 144.141 286.127 149.539C306.182 162.379 306.033 187.16 305.996 188.799C305.761 199.359 301.784 207.012 300.013 210.326L300.001 210.351Z" fill="white"/>
</svg>
