<svg width="390" height="264" viewBox="0 0 390 264" fill="none" xmlns="http://www.w3.org/2000/svg">
<path opacity="0.7" d="M240.157 120.746C236.688 127.241 232.068 131.76 228.079 134.769C224.409 137.54 219.9 139 215.29 139H159.447C138.089 139 116.732 139 95.3844 139C91.7349 139 88.1453 138.086 84.9757 136.299C79.9363 133.458 73.0371 128.204 68.7676 119.206C67.4277 116.386 62.4883 105.54 66.6078 92.6588C67.4377 90.0467 70.5574 80.7805 80.2262 74.454C89.0052 68.7135 98.0541 68.7433 102.484 69.2001C103.813 69.3392 105.043 68.5347 105.473 67.2833C107.753 60.639 112.452 50.6577 122.241 42.7918C141.759 27.0997 172.305 27.1891 191.743 42.3449C201.092 49.6347 205.791 58.7917 208.101 64.5918C208.531 65.6644 209.551 66.3597 210.711 66.3795C215.17 66.4689 222.15 67.3826 228.959 71.7327C245.147 82.0815 245.027 102.054 244.997 103.375C244.807 111.887 241.597 118.054 240.167 120.726L240.157 120.746Z" fill="#BCBCBC"/>
<path d="M175.998 202.694C176.099 209.513 171.3 215.694 165.5 215.694C159.7 215.694 154.91 209.503 155.001 202.694C155.072 197.769 159.053 186.907 162.792 177.554C163.782 175.082 167.278 175.072 168.279 177.534C172.088 186.968 175.928 197.749 175.998 202.694Z" fill="#C3EAF4"/>
<path d="M226.998 212C227.099 218.819 222.3 225 216.5 225C210.7 225 205.91 218.809 206.001 212C206.072 207.075 210.053 196.213 213.792 186.861C214.782 184.388 218.278 184.378 219.279 186.84C223.088 196.274 226.928 207.055 226.998 212Z" fill="#C3EAF4"/>
<path d="M237.999 254.452C238.035 256.84 236.434 259 234.5 259C232.566 259 230.965 256.84 231.001 254.452C231.028 252.728 232.35 248.928 233.591 245.65C233.924 244.788 235.085 244.779 235.418 245.65C236.686 248.957 237.963 252.728 237.99 254.462L237.999 254.452Z" fill="#C3EAF4"/>
<path d="M201.978 235.112C202.05 239.272 198.616 243.04 194.479 243.04C190.342 243.04 186.908 239.272 186.98 235.112C187.022 232.439 189.276 226.923 191.645 221.718C192.659 219.487 196.351 219.477 197.365 221.708C199.764 226.933 201.926 232.429 201.978 235.112Z" fill="#C3EAF4"/>
<path d="M258.991 208.518C259.028 210.87 257.203 213 254.996 213C252.789 213 250.963 210.87 251.001 208.518C251.028 207.012 252.22 203.883 253.487 200.946C254.027 199.689 255.992 199.68 256.542 200.946C257.817 203.902 258.972 207.012 259 208.528L258.991 208.518Z" fill="#C3EAF4"/>
<path opacity="0.7" d="M313.001 170.351C308.702 178.41 302.979 184.017 298.037 187.751C293.49 191.189 287.904 193 282.193 193H213.009C186.55 193 160.09 193 133.643 193C129.122 193 124.674 191.866 120.748 189.648C114.504 186.124 105.957 179.605 100.668 168.441C99.0077 164.941 92.8883 151.485 97.9919 135.503C99.0201 132.262 102.885 120.765 114.864 112.915C125.74 105.793 136.95 105.83 142.438 106.396C144.086 106.569 145.609 105.571 146.142 104.018C148.966 95.7743 154.788 83.3901 166.916 73.6305C191.096 54.1608 228.939 54.2717 253.021 73.076C264.603 82.1208 270.425 93.4823 273.286 100.679C273.819 102.01 275.083 102.872 276.52 102.897C282.044 103.008 290.691 104.141 299.127 109.539C319.182 122.379 319.033 147.16 318.996 148.799C318.761 159.359 314.784 167.012 313.013 170.326L313.001 170.351Z" fill="white"/>
</svg>
