<svg width="56" height="38" viewBox="0 0 56 38" fill="none" xmlns="http://www.w3.org/2000/svg">
<path d="M22.3846 27.7692C28.1199 27.7692 32.7692 23.1199 32.7692 17.3846C32.7692 11.6494 28.1199 7 22.3846 7C16.6494 7 12 11.6494 12 17.3846C12 23.1199 16.6494 27.7692 22.3846 27.7692Z" fill="url(#paint0_radial_34_368)"/>
<path d="M22.4228 24.783C26.4944 24.783 29.7951 21.4823 29.7951 17.4107C29.7951 13.3391 26.4944 10.0385 22.4228 10.0385C18.3512 10.0385 15.0505 13.3391 15.0505 17.4107C15.0505 21.4823 18.3512 24.783 22.4228 24.783Z" fill="#FFC83E"/>
<path opacity="0.7" d="M43.0257 27.9425C42.4746 28.9757 41.7409 29.6945 41.1072 30.1732C40.5244 30.6139 39.8081 30.8462 39.076 30.8462H30.2063C26.814 30.8462 23.4218 30.8462 20.0311 30.8462C19.4514 30.8462 18.8813 30.7008 18.3779 30.4165C17.5774 29.9646 16.4816 29.1289 15.8035 27.6976C15.5907 27.2489 14.8061 25.5237 15.4605 23.4747C15.5923 23.0592 16.0878 21.5852 17.6235 20.5789C19.0179 19.6657 20.4551 19.6705 21.1587 19.7432C21.3699 19.7653 21.5652 19.6373 21.6335 19.4382C21.9956 18.3813 22.742 16.7936 24.2968 15.5424C27.3969 13.0463 32.2486 13.0605 35.3359 15.4713C36.8208 16.6309 37.5673 18.0875 37.9341 19.0101C38.0024 19.1807 38.1644 19.2913 38.3486 19.2945C39.0569 19.3087 40.1654 19.454 41.247 20.146C43.8181 21.7922 43.7991 24.9692 43.7943 25.1793C43.7642 26.5332 43.2544 27.5143 43.0273 27.9393L43.0257 27.9425Z" fill="white"/>
<defs>
<radialGradient id="paint0_radial_34_368" cx="0" cy="0" r="1" gradientUnits="userSpaceOnUse" gradientTransform="translate(22.3846 17.3846) scale(10.3846)">
<stop offset="0.15" stop-color="#F4E199"/>
<stop offset="0.23" stop-color="#F3DE96" stop-opacity="0.94"/>
<stop offset="0.39" stop-color="#F1D891" stop-opacity="0.78"/>
<stop offset="0.62" stop-color="#EFCE88" stop-opacity="0.51"/>
<stop offset="0.89" stop-color="#ECC07C" stop-opacity="0.15"/>
<stop offset="1" stop-color="#EBBB77" stop-opacity="0"/>
</radialGradient>
</defs>
</svg>
