<svg width="56" height="38" viewBox="0 0 56 38" fill="none" xmlns="http://www.w3.org/2000/svg">
<path d="M25.4614 28.0888C25.4743 28.9631 24.859 29.7555 24.1154 29.7555C23.3718 29.7555 22.7578 28.9618 22.7695 28.0888C22.7785 27.4575 23.2889 26.0649 23.7682 24.8659C23.8952 24.5489 24.3434 24.5476 24.4717 24.8633C24.9601 26.0727 25.4523 27.4549 25.4614 28.0888Z" fill="#C3EAF4"/>
<path d="M31.9997 29.2819C32.0127 30.1562 31.3973 30.9486 30.6538 30.9486C29.9102 30.9486 29.2961 30.1549 29.3078 29.2819C29.3168 28.6506 29.8273 27.258 30.3066 26.059C30.4335 25.742 30.8818 25.7407 31.01 26.0564C31.4984 27.2658 31.9907 28.648 31.9997 29.2819Z" fill="#C3EAF4"/>
<path d="M33.4103 34.7246C33.4149 35.0307 33.2096 35.3076 32.9617 35.3076C32.7137 35.3076 32.5084 35.0307 32.513 34.7246C32.5165 34.5035 32.686 34.0164 32.8452 33.5961C32.8878 33.4856 33.0366 33.4844 33.0793 33.5961C33.2419 34.02 33.4057 34.5035 33.4091 34.7258L33.4103 34.7246Z" fill="#C3EAF4"/>
<path d="M28.7921 32.2451C28.8014 32.7784 28.3611 33.2615 27.8307 33.2615C27.3003 33.2615 26.86 32.7784 26.8693 32.2451C26.8746 31.9024 27.1637 31.1952 27.4673 30.5279C27.5973 30.2419 28.0707 30.2406 28.2007 30.5266C28.5083 31.1965 28.7854 31.9011 28.7921 32.2451Z" fill="#C3EAF4"/>
<path d="M36.1014 28.8356C36.1061 29.1371 35.8721 29.4102 35.5892 29.4102C35.3062 29.4102 35.0722 29.1371 35.077 28.8356C35.0806 28.6425 35.2334 28.2414 35.3957 27.8649C35.465 27.7037 35.7169 27.7025 35.7874 27.8649C35.9509 28.2438 36.099 28.6425 36.1025 28.8369L36.1014 28.8356Z" fill="#C3EAF4"/>
<path d="M22.3846 23.7692C28.1199 23.7692 32.7692 19.1199 32.7692 13.3846C32.7692 7.64935 28.1199 3 22.3846 3C16.6494 3 12 7.64935 12 13.3846C12 19.1199 16.6494 23.7692 22.3846 23.7692Z" fill="url(#paint0_radial_34_371)"/>
<path d="M22.4228 20.783C26.4944 20.783 29.7951 17.4823 29.7951 13.4107C29.7951 9.33907 26.4944 6.03839 22.4228 6.03839C18.3512 6.03839 15.0505 9.33907 15.0505 13.4107C15.0505 17.4823 18.3512 20.783 22.4228 20.783Z" fill="#FFC83E"/>
<path opacity="0.7" d="M43.0257 23.9424C42.4746 24.9756 41.7409 25.6944 41.1072 26.1731C40.5244 26.6139 39.8081 26.8461 39.076 26.8461H30.2063C26.814 26.8461 23.4218 26.8461 20.0311 26.8461C19.4514 26.8461 18.8813 26.7008 18.3779 26.4164C17.5774 25.9646 16.4816 25.1288 15.8035 23.6975C15.5907 23.2489 14.8061 21.5237 15.4605 19.4746C15.5923 19.0591 16.0878 17.5852 17.6235 16.5788C19.0179 15.6657 20.4551 15.6704 21.1587 15.7431C21.3699 15.7652 21.5652 15.6372 21.6335 15.4382C21.9956 14.3813 22.742 12.7936 24.2968 11.5423C27.3969 9.04621 32.2486 9.06043 35.3359 11.4712C36.8208 12.6308 37.5673 14.0874 37.9341 15.0101C38.0024 15.1807 38.1644 15.2913 38.3486 15.2944C39.0569 15.3086 40.1654 15.454 41.247 16.1459C43.8181 17.7921 43.7991 20.9692 43.7943 21.1793C43.7642 22.5332 43.2544 23.5143 43.0273 23.9392L43.0257 23.9424Z" fill="white"/>
<defs>
<radialGradient id="paint0_radial_34_371" cx="0" cy="0" r="1" gradientUnits="userSpaceOnUse" gradientTransform="translate(22.3846 13.3846) scale(10.3846)">
<stop offset="0.15" stop-color="#F4E199"/>
<stop offset="0.23" stop-color="#F3DE96" stop-opacity="0.94"/>
<stop offset="0.39" stop-color="#F1D891" stop-opacity="0.78"/>
<stop offset="0.62" stop-color="#EFCE88" stop-opacity="0.51"/>
<stop offset="0.89" stop-color="#ECC07C" stop-opacity="0.15"/>
<stop offset="1" stop-color="#EBBB77" stop-opacity="0"/>
</radialGradient>
</defs>
</svg>
