<svg width="56" height="38" viewBox="0 0 56 38" fill="none" xmlns="http://www.w3.org/2000/svg">
<path d="M22.8489 22.6297L34.1129 16.1508L37.8015 17.1336C38.2304 17.2457 38.67 16.9947 38.7879 16.5674C38.9059 16.1401 38.6485 15.7021 38.2196 15.5846L36.0859 15.0131L38.7772 13.4641C39.1632 13.2451 39.2919 12.7537 39.0721 12.3691C38.8523 11.9846 38.359 11.8564 37.973 12.0754L35.2817 13.6243L35.8553 11.4985C35.9679 11.0712 35.7159 10.6332 35.287 10.5157C34.8581 10.3982 34.4185 10.6546 34.3006 11.0819L33.3141 14.7567L22.0501 21.2357L18.3616 20.2529C17.9327 20.1407 17.493 20.3918 17.3751 20.8191C17.3161 21.0327 17.3537 21.2517 17.4555 21.428C17.5574 21.6042 17.7289 21.7431 17.9434 21.8018L20.0772 22.3734L17.4019 23.9117C17.0159 24.1306 16.8872 24.622 17.107 25.0066C17.3269 25.3912 17.8201 25.5194 18.2061 25.3004L20.8814 23.7621L20.3077 25.8879C20.2487 26.1016 20.2863 26.3206 20.3881 26.4968C20.49 26.6731 20.6615 26.812 20.876 26.8707C21.3049 26.9829 21.7445 26.7319 21.8625 26.3045L22.8489 22.6297Z" fill="white" fill-opacity="0.8"/>
<path d="M33.3302 22.6244L22.0662 16.1454L18.3777 17.1282C17.9488 17.2404 17.5091 16.9894 17.3912 16.5621C17.2732 16.1348 17.5306 15.6968 17.9595 15.5793L20.0933 15.0077L17.4019 13.4641C17.0159 13.2451 16.8872 12.7537 17.107 12.3691C17.3269 11.9846 17.8201 11.8564 18.2061 12.0754L20.8974 13.6243L20.3238 11.4985C20.2112 11.0712 20.4632 10.6332 20.8921 10.5157C21.321 10.3982 21.7606 10.6546 21.8786 11.0819L22.865 14.7567L34.129 21.2357L37.8175 20.2529C38.2464 20.1407 38.6861 20.3918 38.804 20.8191C38.863 21.0327 38.8255 21.2517 38.7236 21.428C38.6217 21.6042 38.4502 21.7431 38.2357 21.8019L36.1019 22.3734L38.7772 23.9117C39.1632 24.1306 39.2919 24.622 39.0721 25.0066C38.8523 25.3912 38.359 25.5194 37.973 25.3004L35.2978 23.7621L35.8714 25.8879C35.9304 26.1016 35.8929 26.3206 35.791 26.4968C35.6891 26.6731 35.5176 26.812 35.3031 26.8707C34.8742 26.9829 34.4346 26.7319 34.3166 26.3045L33.3302 22.6297V22.6244Z" fill="white" fill-opacity="0.8"/>
<path d="M28.9483 25.2048V12.1906L31.6357 9.4869C31.9503 9.17039 31.9503 8.66077 31.6357 8.34963C31.3211 8.03849 30.8146 8.03313 30.5053 8.34963L28.9536 9.91069V6.80467C28.9536 6.35942 28.5963 6 28.1537 6C27.7112 6 27.3539 6.35942 27.3539 6.80467V9.91605L25.8022 8.355C25.4876 8.03849 24.981 8.03849 24.6717 8.355C24.3625 8.6715 24.3571 9.18112 24.6717 9.49226L27.3539 12.1959V25.2101L24.6717 27.9138C24.3571 28.2303 24.3571 28.7399 24.6717 29.0511C24.8264 29.2066 25.0343 29.2871 25.237 29.2871C25.4396 29.2871 25.6476 29.2066 25.8022 29.0511L27.3539 27.49V30.5799C27.3539 31.0252 27.7112 31.3846 28.1537 31.3846C28.5963 31.3846 28.9536 31.0252 28.9536 30.5799V27.49L30.5053 29.0511C30.6599 29.2066 30.8679 29.2871 31.0705 29.2871C31.2731 29.2871 31.4811 29.2066 31.6357 29.0511C31.9503 28.7346 31.9503 28.2249 31.6357 27.9138L28.9483 25.2101V25.2048Z" fill="white" fill-opacity="0.8"/>
</svg>
