<svg width="56" height="38" viewBox="0 0 56 38" fill="none" xmlns="http://www.w3.org/2000/svg">
<path d="M27.354 20.0707H17.9848C17.4399 20.0707 17 19.6316 17 19.0876C17 18.5436 17.4399 18.1045 17.9848 18.1045H27.354C27.899 18.1045 28.3389 18.5436 28.3389 19.0876C28.3389 19.6316 27.899 20.0707 27.354 20.0707Z" fill="white" fill-opacity="0.8"/>
<path d="M35.4627 16.4004H26.0935C25.5485 16.4004 25.1086 15.9613 25.1086 15.4174C25.1086 14.8734 25.5485 14.4343 26.0935 14.4343H35.4627C36.0076 14.4343 36.4475 14.8734 36.4475 15.4174C36.4475 15.9613 36.0076 16.4004 35.4627 16.4004Z" fill="white" fill-opacity="0.8"/>
<path d="M36.3819 24.0358H27.0127C26.4677 24.0358 26.0278 23.5967 26.0278 23.0527C26.0278 22.5088 26.4677 22.0696 27.0127 22.0696H36.3819C36.9268 22.0696 37.3667 22.5088 37.3667 23.0527C37.3667 23.5967 36.9268 24.0358 36.3819 24.0358Z" fill="#A9A9A9" fill-opacity="0.8"/>
<path d="M23.953 24.0358H20.9328C20.3879 24.0358 19.948 23.5967 19.948 23.0527C19.948 22.5088 20.3879 22.0696 20.9328 22.0696H23.953C24.498 22.0696 24.9379 22.5088 24.9379 23.0527C24.9379 23.5967 24.498 24.0358 23.953 24.0358Z" fill="white" fill-opacity="0.8"/>
<path d="M22.9157 16.4004H19.8955C19.3505 16.4004 18.9106 15.9613 18.9106 15.4174C18.9106 14.8734 19.3505 14.4343 19.8955 14.4343H22.9157C23.4606 14.4343 23.9005 14.8734 23.9005 15.4174C23.9005 15.9613 23.4606 16.4004 22.9157 16.4004Z" fill="#A9A9A9" fill-opacity="0.8"/>
<path d="M29.3829 12.9662H23.9531C23.4082 12.9662 22.9683 12.5271 22.9683 11.9831C22.9683 11.4391 23.4082 11 23.9531 11H29.3829C29.9279 11 30.3678 11.4391 30.3678 11.9831C30.3678 12.5271 29.9279 12.9662 29.3829 12.9662Z" fill="white" fill-opacity="0.8"/>
<path d="M35.7712 12.9662H32.751C32.206 12.9662 31.7661 12.5271 31.7661 11.9831C31.7661 11.4391 32.206 11 32.751 11H35.7712C36.3161 11 36.756 11.4391 36.756 11.9831C36.756 12.5271 36.3161 12.9662 35.7712 12.9662Z" fill="#A9A9A9" fill-opacity="0.8"/>
<path d="M30.952 27.6667H28.654C28.1091 27.6667 27.6692 27.2276 27.6692 26.6836C27.6692 26.1396 28.1091 25.7005 28.654 25.7005H30.952C31.497 25.7005 31.9369 26.1396 31.9369 26.6836C31.9369 27.2276 31.497 27.6667 30.952 27.6667Z" fill="white" fill-opacity="0.8"/>
<path d="M25.4041 27.6667H20.145C19.6001 27.6667 19.1602 27.2276 19.1602 26.6836C19.1602 26.1396 19.6001 25.7005 20.145 25.7005H25.4041C25.949 25.7005 26.3889 26.1396 26.3889 26.6836C26.3889 27.2276 25.949 27.6667 25.4041 27.6667Z" fill="#A9A9A9" fill-opacity="0.8"/>
<path d="M37.6818 20.0707H30.302C29.757 20.0707 29.3171 19.6316 29.3171 19.0876C29.3171 18.5436 29.757 18.1045 30.302 18.1045H37.6818C38.2267 18.1045 38.6666 18.5436 38.6666 19.0876C38.6666 19.6316 38.2267 20.0707 37.6818 20.0707Z" fill="white" fill-opacity="0.8"/>
</svg>
