<svg width="390" height="264" viewBox="0 0 390 264" fill="none" xmlns="http://www.w3.org/2000/svg">
<path d="M152 201C196.735 201 233 164.735 233 120C233 75.2649 196.735 39 152 39C107.265 39 71 75.2649 71 120C71 164.735 107.265 201 152 201Z" fill="url(#paint0_radial_34_276)"/>
<path d="M152.298 177.707C184.056 177.707 209.802 151.962 209.802 120.204C209.802 88.4452 184.056 62.6999 152.298 62.6999C120.54 62.6999 94.7942 88.4452 94.7942 120.204C94.7942 151.962 120.54 177.707 152.298 177.707Z" fill="#FFC83E"/>
<path opacity="0.7" d="M313.001 202.351C308.702 210.41 302.979 216.017 298.037 219.751C293.49 223.189 287.904 225 282.193 225H213.009C186.55 225 160.09 225 133.643 225C129.122 225 124.674 223.866 120.748 221.648C114.504 218.124 105.957 211.605 100.668 200.441C99.0077 196.941 92.8883 183.485 97.9919 167.503C99.0201 164.262 102.885 152.765 114.864 144.915C125.74 137.793 136.95 137.83 142.438 138.396C144.086 138.569 145.609 137.571 146.142 136.018C148.966 127.774 154.788 115.39 166.916 105.631C191.096 86.1608 228.939 86.2717 253.021 105.076C264.603 114.121 270.425 125.482 273.286 132.679C273.819 134.01 275.083 134.872 276.52 134.897C282.044 135.008 290.691 136.141 299.127 141.539C319.182 154.379 319.033 179.16 318.996 180.799C318.761 191.359 314.784 199.012 313.013 202.326L313.001 202.351Z" fill="white"/>
<defs>
<radialGradient id="paint0_radial_34_276" cx="0" cy="0" r="1" gradientUnits="userSpaceOnUse" gradientTransform="translate(152 120) scale(81)">
<stop offset="0.15" stop-color="#F4E199"/>
<stop offset="0.23" stop-color="#F3DE96" stop-opacity="0.94"/>
<stop offset="0.39" stop-color="#F1D891" stop-opacity="0.78"/>
<stop offset="0.62" stop-color="#EFCE88" stop-opacity="0.51"/>
<stop offset="0.89" stop-color="#ECC07C" stop-opacity="0.15"/>
<stop offset="1" stop-color="#EBBB77" stop-opacity="0"/>
</radialGradient>
</defs>
</svg>
