<svg width="56" height="38" viewBox="0 0 56 38" fill="none" xmlns="http://www.w3.org/2000/svg">
<path d="M29.1739 18.6445L26.6606 23.5782C26.4409 24.0097 26.6095 24.5383 27.0364 24.7616L29.1214 25.8522C29.5027 26.0519 29.6837 26.5001 29.5497 26.9094L28.2882 30.7525C28.1528 31.1632 28.6958 31.4476 28.9542 31.1008L32.4153 26.4432C32.7344 26.0131 32.6018 25.3999 32.1334 25.1432L29.4184 23.6517C29.0716 23.4602 28.8948 23.0607 28.986 22.6736L29.8813 18.9081C29.9863 18.4683 29.3783 18.2435 29.1725 18.6459L29.1739 18.6445Z" fill="#FFC83E"/>
<path d="M24.3845 24.4223C24.3974 25.2965 23.7821 26.089 23.0385 26.089C22.2949 26.089 21.6809 25.2952 21.6925 24.4223C21.7016 23.7909 22.212 22.3983 22.6913 21.1993C22.8183 20.8823 23.2665 20.881 23.3948 21.1967C23.8832 22.4061 24.3754 23.7883 24.3845 24.4223Z" fill="#C3EAF4"/>
<path d="M32.3334 31.0579C32.338 31.3641 32.1327 31.641 31.8848 31.641C31.6368 31.641 31.4315 31.3641 31.4361 31.0579C31.4396 30.8369 31.6091 30.3498 31.7683 29.9295C31.8109 29.819 31.9597 29.8177 32.0024 29.9295C32.165 30.3534 32.3288 30.8369 32.3322 31.0592L32.3334 31.0579Z" fill="#C3EAF4"/>
<path d="M27.7152 28.5785C27.7245 29.1118 27.2842 29.5949 26.7538 29.5949C26.2234 29.5949 25.7831 29.1118 25.7924 28.5785C25.7977 28.2358 26.0868 27.5286 26.3904 26.8613C26.5204 26.5753 26.9938 26.574 27.1237 26.86C27.4314 27.5299 27.7085 28.2345 27.7152 28.5785Z" fill="#C3EAF4"/>
<path d="M35.0244 25.169C35.0292 25.4704 34.7952 25.7436 34.5123 25.7436C34.2293 25.7436 33.9953 25.4704 34.0001 25.169C34.0037 24.9758 34.1565 24.5747 34.3188 24.1982C34.3881 24.0371 34.64 24.0358 34.7104 24.1982C34.874 24.5772 35.0221 24.9758 35.0256 25.1702L35.0244 25.169Z" fill="#C3EAF4"/>
<path opacity="0.7" d="M41.8206 20.2758C41.2695 21.309 40.5358 22.0278 39.9021 22.5065C39.3193 22.9473 38.603 23.1795 37.8709 23.1795H29.0012C25.6089 23.1795 22.2167 23.1795 18.826 23.1795C18.2463 23.1795 17.6762 23.0341 17.1728 22.7498C16.3724 22.2979 15.2765 21.4622 14.5984 20.0309C14.3856 19.5822 13.6011 17.8571 14.2554 15.808C14.3872 15.3925 14.8827 13.9185 16.4184 12.9122C17.8128 11.9991 19.25 12.0038 19.9536 12.0765C20.1648 12.0986 20.3602 11.9706 20.4284 11.7716C20.7905 10.7147 21.537 9.12693 23.0917 7.87571C26.1918 5.37959 31.0435 5.3938 34.1309 7.80462C35.6158 8.96421 36.3622 10.4208 36.729 11.3434C36.7973 11.514 36.9593 11.6246 37.1435 11.6278C37.8518 11.642 38.9604 11.7874 40.0419 12.4793C42.6131 14.1255 42.594 17.3025 42.5892 17.5127C42.5591 18.8666 42.0493 19.8476 41.8222 20.2726L41.8206 20.2758Z" fill="white"/>
</svg>
