<svg width="56" height="38" viewBox="0 0 56 38" fill="none" xmlns="http://www.w3.org/2000/svg">
<path opacity="0.7" d="M34.4561 20.3263C34.0113 21.1591 33.419 21.7384 32.9075 22.1242C32.4371 22.4795 31.859 22.6666 31.268 22.6666H24.1086C21.3704 22.6666 18.6323 22.6666 15.8954 22.6666C15.4275 22.6666 14.9673 22.5495 14.561 22.3203C13.9149 21.9562 13.0304 21.2826 12.483 20.129C12.3112 19.7674 11.678 18.3769 12.2061 16.7255C12.3125 16.3906 12.7125 15.2026 13.9521 14.3915C15.0776 13.6556 16.2377 13.6594 16.8056 13.7179C16.9761 13.7358 17.1338 13.6326 17.1889 13.4722C17.4812 12.6204 18.0836 11.3407 19.3386 10.3323C21.8409 8.32046 25.7571 8.33192 28.2491 10.275C29.4477 11.2096 30.0502 12.3835 30.3463 13.1271C30.4014 13.2647 30.5322 13.3538 30.6809 13.3563C31.2526 13.3678 32.1474 13.4849 33.0204 14.0426C35.0958 15.3694 35.0804 17.93 35.0765 18.0993C35.0522 19.1906 34.6407 19.9813 34.4574 20.3238L34.4561 20.3263Z" fill="#B7B7B7"/>
<path opacity="0.7" d="M42.4588 11.7529C42.2363 12.1693 41.9402 12.459 41.6845 12.6519C41.4493 12.8295 41.1602 12.9231 40.8647 12.9231H37.285C35.9159 12.9231 34.5469 12.9231 33.1784 12.9231C32.9445 12.9231 32.7144 12.8645 32.5112 12.7499C32.1882 12.5678 31.7459 12.231 31.4722 11.6542C31.3863 11.4734 31.0697 10.7782 31.3338 9.95248C31.387 9.78505 31.587 9.19106 32.2068 8.78551C32.7695 8.41753 33.3496 8.41944 33.6335 8.44873C33.7188 8.45764 33.7976 8.40607 33.8252 8.32585C33.9713 7.89994 34.2725 7.26011 34.9 6.75588C36.1512 5.74998 38.1093 5.75571 39.3553 6.72723C39.9546 7.19453 40.2558 7.78152 40.4039 8.15332C40.4314 8.22208 40.4968 8.26665 40.5712 8.26792C40.857 8.27365 41.3044 8.33222 41.7409 8.61107C42.7786 9.27446 42.7709 10.5548 42.769 10.6394C42.7568 11.185 42.5511 11.5804 42.4594 11.7516L42.4588 11.7529Z" fill="white"/>
<path opacity="0.7" d="M43.795 29.2501C43.2439 30.2833 42.5102 31.0022 41.8765 31.4808C41.2936 31.9216 40.5774 32.1539 39.8453 32.1539H30.9755C27.5833 32.1539 24.191 32.1539 20.8004 32.1539C20.2207 32.1539 19.6506 32.0085 19.1471 31.7241C18.3467 31.2723 17.2509 30.4366 16.5728 29.0053C16.36 28.5566 15.5754 26.8314 16.2297 24.7824C16.3616 24.3669 16.8571 22.8929 18.3928 21.8866C19.7872 20.9734 21.2244 20.9782 21.928 21.0508C22.1392 21.073 22.3345 20.945 22.4028 20.7459C22.7649 19.689 23.5113 18.1013 25.0661 16.8501C28.1661 14.354 33.0179 14.3682 36.1052 16.779C37.5901 17.9386 38.3365 19.3952 38.7034 20.3178C38.7717 20.4884 38.9337 20.599 39.1179 20.6022C39.8262 20.6164 40.9347 20.7617 42.0162 21.4537C44.5874 23.0999 44.5684 26.2769 44.5636 26.487C44.5334 27.8409 44.0236 28.822 43.7965 29.247L43.795 29.2501Z" fill="white"/>
</svg>
