<svg width="390" height="844" viewBox="0 0 390 844" fill="none" xmlns="http://www.w3.org/2000/svg">
<path d="M159.119 480.239C196.741 480.239 227.239 449.741 227.239 412.119C227.239 374.498 196.741 344 159.119 344C121.498 344 91 374.498 91 412.119C91 449.741 121.498 480.239 159.119 480.239Z" fill="url(#paint0_radial_5_124)"/>
<path d="M159.37 460.65C186.078 460.65 207.73 438.999 207.73 412.291C207.73 385.582 186.078 363.931 159.37 363.931C132.662 363.931 111.01 385.582 111.01 412.291C111.01 438.999 132.662 460.65 159.37 460.65Z" fill="#FFC83E"/>
<path opacity="0.7" d="M293.963 481.015C290.355 487.77 285.551 492.47 281.402 495.599C277.585 498.481 272.895 499.999 268.102 499.999H210.025C187.813 499.999 165.601 499.999 143.4 499.999C139.604 499.999 135.871 499.049 132.575 497.19C127.334 494.236 120.159 488.772 115.719 479.414C114.325 476.48 109.188 465.201 113.472 451.805C114.336 449.088 117.58 439.451 127.635 432.872C136.766 426.902 146.176 426.933 150.783 427.408C152.166 427.552 153.445 426.716 153.892 425.414C156.263 418.504 161.151 408.124 171.331 399.943C191.629 383.624 223.397 383.716 243.613 399.478C253.335 407.06 258.223 416.583 260.625 422.615C261.072 423.731 262.133 424.454 263.339 424.474C267.977 424.567 275.235 425.518 282.317 430.042C299.152 440.804 299.027 461.576 298.996 462.95C298.799 471.801 295.461 478.216 293.974 480.994L293.963 481.015Z" fill="white"/>
<defs>
<radialGradient id="paint0_radial_5_124" cx="0" cy="0" r="1" gradientUnits="userSpaceOnUse" gradientTransform="translate(159.119 412.119) scale(68.1194)">
<stop offset="0.15" stop-color="#F4E199"/>
<stop offset="0.23" stop-color="#F3DE96" stop-opacity="0.94"/>
<stop offset="0.39" stop-color="#F1D891" stop-opacity="0.78"/>
<stop offset="0.62" stop-color="#EFCE88" stop-opacity="0.51"/>
<stop offset="0.89" stop-color="#ECC07C" stop-opacity="0.15"/>
<stop offset="1" stop-color="#EBBB77" stop-opacity="0"/>
</radialGradient>
</defs>
</svg>
