<svg width="390" height="264" viewBox="0 0 390 264" fill="none" xmlns="http://www.w3.org/2000/svg">
<path opacity="0.7" d="M322.001 190.351C317.702 198.41 311.979 204.017 307.037 207.751C302.49 211.189 296.904 213 291.193 213H222.009C195.55 213 169.09 213 142.643 213C138.122 213 133.674 211.866 129.748 209.648C123.504 206.124 114.957 199.605 109.668 188.441C108.008 184.941 101.888 171.485 106.992 155.503C108.02 152.262 111.885 140.765 123.864 132.915C134.74 125.793 145.95 125.83 151.438 126.396C153.086 126.569 154.609 125.571 155.142 124.018C157.966 115.774 163.788 103.39 175.916 93.6305C200.096 74.1608 237.939 74.2717 262.021 93.076C273.603 102.121 279.425 113.482 282.286 120.679C282.819 122.01 284.083 122.872 285.52 122.897C291.044 123.008 299.691 124.141 308.127 129.539C328.182 142.379 328.033 167.16 327.996 168.799C327.761 179.359 323.784 187.012 322.013 190.326L322.001 190.351Z" fill="white"/>
<path opacity="0.7" d="M249.157 140.746C245.688 147.241 241.068 151.76 237.079 154.769C233.409 157.54 228.9 159 224.29 159H168.447C147.089 159 125.732 159 104.384 159C100.735 159 97.1453 158.086 93.9757 156.299C88.9363 153.458 82.0371 148.204 77.7676 139.206C76.4277 136.386 71.4883 125.54 75.6078 112.659C76.4377 110.047 79.5574 100.78 89.2262 94.454C98.0052 88.7135 107.054 88.7433 111.484 89.2001C112.813 89.3392 114.043 88.5347 114.473 87.2833C116.753 80.639 121.452 70.6577 131.241 62.7918C150.759 47.0997 181.305 47.1891 200.743 62.3449C210.092 69.6347 214.791 78.7917 217.101 84.5918C217.531 85.6644 218.551 86.3597 219.711 86.3795C224.17 86.4689 231.15 87.3826 237.959 91.7327C254.147 102.082 254.027 122.054 253.997 123.375C253.807 131.887 250.597 138.054 249.167 140.726L249.157 140.746Z" fill="white"/>
</svg>
