<svg width="390" height="264" viewBox="0 0 390 264" fill="none" xmlns="http://www.w3.org/2000/svg">
<path d="M154.622 162.712L242.481 112.176L271.251 119.842C274.597 120.717 278.026 118.759 278.946 115.426C279.866 112.093 277.859 108.676 274.513 107.76L257.87 103.302L278.862 91.22C281.873 89.5119 282.877 85.679 281.162 82.6793C279.448 79.6797 275.6 78.6798 272.59 80.3879L251.597 92.4699L256.072 75.8884C256.95 72.5555 254.984 69.1392 251.639 68.2226C248.293 67.3061 244.864 69.3058 243.944 72.6388L236.25 101.302L148.391 151.838L119.62 144.172C116.275 143.298 112.846 145.256 111.926 148.589C111.466 150.255 111.759 151.963 112.553 153.338C113.348 154.713 114.686 155.796 116.358 156.254L133.002 160.712L112.135 172.711C109.124 174.419 108.12 178.252 109.835 181.252C111.549 184.251 115.397 185.251 118.408 183.543L139.275 171.544L134.8 188.126C134.34 189.792 134.633 191.5 135.427 192.875C136.222 194.25 137.56 195.333 139.233 195.792C142.578 196.667 146.007 194.708 146.927 191.375L154.622 162.712Z" fill="white" fill-opacity="0.8"/>
<path d="M236.375 162.67L148.516 112.134L119.746 119.8C116.4 120.675 112.971 118.717 112.051 115.384C111.131 112.051 113.139 108.635 116.484 107.718L133.127 103.26L112.135 91.22C109.124 89.5119 108.12 85.679 109.835 82.6793C111.549 79.6797 115.397 78.6798 118.408 80.3879L139.4 92.4699L134.926 75.8884C134.047 72.5555 136.013 69.1392 139.358 68.2226C142.704 67.3061 146.133 69.3058 147.053 72.6388L154.747 101.302L242.606 151.838L271.377 144.172C274.722 143.298 278.151 145.256 279.071 148.589C279.531 150.255 279.239 151.963 278.444 153.338C277.65 154.713 276.311 155.796 274.639 156.254L257.995 160.712L278.862 172.711C281.873 174.419 282.877 178.252 281.162 181.252C279.448 184.251 275.6 185.251 272.59 183.543L251.723 171.544L256.197 188.126C256.657 189.792 256.364 191.5 255.57 192.875C254.775 194.25 253.437 195.333 251.764 195.792C248.419 196.667 244.99 194.708 244.07 191.375L236.375 162.712V162.67Z" fill="white" fill-opacity="0.8"/>
<path d="M202.197 182.797V81.2866L223.16 60.1978C225.613 57.7291 225.613 53.754 223.16 51.3271C220.706 48.9003 216.754 48.8584 214.342 51.3271L202.239 63.5034V39.2764C202.239 35.8035 199.452 33 196 33C192.548 33 189.761 35.8035 189.761 39.2764V63.5452L177.658 51.369C175.204 48.9003 171.253 48.9003 168.84 51.369C166.428 53.8377 166.387 57.8128 168.84 60.2396L189.761 81.3284V182.839L168.84 203.928C166.387 206.396 166.387 210.372 168.84 212.798C170.047 214.012 171.669 214.639 173.249 214.639C174.83 214.639 176.452 214.012 177.658 212.798L189.761 200.622V224.724C189.761 228.197 192.548 231 196 231C199.452 231 202.239 228.197 202.239 224.724V200.622L214.342 212.798C215.548 214.012 217.17 214.639 218.751 214.639C220.331 214.639 221.953 214.012 223.16 212.798C225.613 210.33 225.613 206.355 223.16 203.928L202.197 182.839V182.797Z" fill="white" fill-opacity="0.8"/>
</svg>
