<svg width="390" height="264" viewBox="0 0 390 264" fill="none" xmlns="http://www.w3.org/2000/svg">
<path d="M175.998 201.694C176.099 208.513 171.3 214.694 165.5 214.694C159.7 214.694 154.91 208.503 155.001 201.694C155.072 196.769 159.053 185.907 162.792 176.554C163.782 174.082 167.278 174.072 168.279 176.534C172.088 185.968 175.928 196.749 175.998 201.694Z" fill="#C3EAF4"/>
<path d="M226.998 211C227.099 217.819 222.3 224 216.5 224C210.7 224 205.91 217.809 206.001 211C206.072 206.075 210.053 195.213 213.792 185.861C214.782 183.388 218.278 183.378 219.279 185.84C223.088 195.274 226.928 206.055 226.998 211Z" fill="#C3EAF4"/>
<path d="M237.999 253.452C238.035 255.84 236.434 258 234.5 258C232.566 258 230.965 255.84 231.001 253.452C231.028 251.728 232.35 247.928 233.591 244.65C233.924 243.788 235.085 243.779 235.418 244.65C236.686 247.957 237.963 251.728 237.99 253.462L237.999 253.452Z" fill="#C3EAF4"/>
<path d="M201.978 234.112C202.05 238.272 198.616 242.04 194.479 242.04C190.342 242.04 186.908 238.272 186.98 234.112C187.022 231.439 189.276 225.923 191.645 220.718C192.659 218.487 196.351 218.477 197.365 220.708C199.764 225.933 201.926 231.429 201.978 234.112Z" fill="#C3EAF4"/>
<path d="M258.991 207.518C259.028 209.87 257.203 212 254.996 212C252.789 212 250.963 209.87 251.001 207.518C251.028 206.012 252.22 202.883 253.487 199.946C254.027 198.689 255.992 198.68 256.542 199.946C257.817 202.902 258.972 206.012 259 207.528L258.991 207.518Z" fill="#C3EAF4"/>
<path d="M152 168C196.735 168 233 131.735 233 87C233 42.2649 196.735 6 152 6C107.265 6 71 42.2649 71 87C71 131.735 107.265 168 152 168Z" fill="url(#paint0_radial_34_274)"/>
<path d="M152.298 144.707C184.056 144.707 209.802 118.962 209.802 87.2037C209.802 55.4452 184.056 29.6999 152.298 29.6999C120.54 29.6999 94.7942 55.4452 94.7942 87.2037C94.7942 118.962 120.54 144.707 152.298 144.707Z" fill="#FFC83E"/>
<path opacity="0.7" d="M313.001 169.351C308.702 177.41 302.979 183.017 298.037 186.751C293.49 190.189 287.904 192 282.193 192H213.009C186.55 192 160.09 192 133.643 192C129.122 192 124.674 190.866 120.748 188.648C114.504 185.124 105.957 178.605 100.668 167.441C99.0077 163.941 92.8883 150.485 97.9919 134.503C99.0201 131.262 102.885 119.765 114.864 111.915C125.74 104.793 136.95 104.83 142.438 105.396C144.086 105.569 145.609 104.571 146.142 103.018C148.966 94.7743 154.788 82.3901 166.916 72.6305C191.096 53.1608 228.939 53.2717 253.021 72.076C264.603 81.1208 270.425 92.4823 273.286 99.6787C273.819 101.01 275.083 101.872 276.52 101.897C282.044 102.008 290.691 103.141 299.127 108.539C319.182 121.379 319.033 146.16 318.996 147.799C318.761 158.359 314.784 166.012 313.013 169.326L313.001 169.351Z" fill="white"/>
<defs>
<radialGradient id="paint0_radial_34_274" cx="0" cy="0" r="1" gradientUnits="userSpaceOnUse" gradientTransform="translate(152 87) scale(81)">
<stop offset="0.15" stop-color="#F4E199"/>
<stop offset="0.23" stop-color="#F3DE96" stop-opacity="0.94"/>
<stop offset="0.39" stop-color="#F1D891" stop-opacity="0.78"/>
<stop offset="0.62" stop-color="#EFCE88" stop-opacity="0.51"/>
<stop offset="0.89" stop-color="#ECC07C" stop-opacity="0.15"/>
<stop offset="1" stop-color="#EBBB77" stop-opacity="0"/>
</radialGradient>
</defs>
</svg>
