<svg width="390" height="264" viewBox="0 0 390 264" fill="none" xmlns="http://www.w3.org/2000/svg">
<path d="M201.355 131.627L181.752 170.11C180.038 173.475 181.353 177.598 184.683 179.341L200.946 187.847C203.92 189.405 205.332 192.901 204.287 196.093L194.447 226.07C193.391 229.273 197.626 231.491 199.642 228.786L226.638 192.457C229.128 189.102 228.093 184.319 224.44 182.317L203.263 170.683C200.558 169.19 199.178 166.073 199.89 163.054L206.873 133.683C207.692 130.253 202.95 128.499 201.345 131.638L201.355 131.627Z" fill="#FFC83E"/>
<path d="M163.998 176.694C164.099 183.513 159.3 189.694 153.5 189.694C147.7 189.694 142.91 183.503 143.001 176.694C143.072 171.769 147.053 160.907 150.792 151.554C151.782 149.082 155.278 149.072 156.279 151.534C160.088 160.968 163.928 171.749 163.998 176.694Z" fill="#C3EAF4"/>
<path d="M225.999 228.452C226.035 230.84 224.434 233 222.5 233C220.566 233 218.965 230.84 219.001 228.452C219.028 226.728 220.35 222.928 221.591 219.65C221.924 218.788 223.085 218.779 223.418 219.65C224.686 222.957 225.963 226.728 225.99 228.462L225.999 228.452Z" fill="#C3EAF4"/>
<path d="M189.978 209.112C190.05 213.272 186.616 217.04 182.479 217.04C178.342 217.04 174.908 213.272 174.98 209.112C175.022 206.439 177.276 200.923 179.645 195.718C180.659 193.487 184.351 193.477 185.365 195.708C187.764 200.933 189.926 206.429 189.978 209.112Z" fill="#C3EAF4"/>
<path d="M246.991 182.518C247.028 184.87 245.203 187 242.996 187C240.789 187 238.963 184.87 239.001 182.518C239.028 181.012 240.22 177.883 241.487 174.946C242.027 173.689 243.992 173.68 244.542 174.946C245.817 177.902 246.972 181.012 247 182.528L246.991 182.518Z" fill="#C3EAF4"/>
<path opacity="0.7" d="M300.001 144.351C295.702 152.41 289.979 158.017 285.037 161.751C280.49 165.189 274.904 167 269.193 167H200.009C173.55 167 147.09 167 120.643 167C116.122 167 111.674 165.866 107.748 163.648C101.504 160.124 92.957 153.605 87.6676 142.441C86.0077 138.941 79.8883 125.485 84.9919 109.503C86.0201 106.262 89.8849 94.7647 101.864 86.9151C112.74 79.7926 123.95 79.8296 129.438 80.3965C131.086 80.569 132.609 79.5708 133.142 78.0182C135.966 69.7743 141.788 57.3901 153.916 47.6305C178.096 28.1608 215.939 28.2717 240.021 47.076C251.603 56.1208 257.425 67.4823 260.286 74.6787C260.819 76.0096 262.083 76.8722 263.52 76.8968C269.044 77.0077 277.691 78.1414 286.127 83.5387C306.182 96.3789 306.033 121.16 305.996 122.799C305.761 133.359 301.784 141.012 300.013 144.326L300.001 144.351Z" fill="white"/>
</svg>
