<svg width="56" height="38" viewBox="0 0 56 38" fill="none" xmlns="http://www.w3.org/2000/svg">
<path opacity="0.7" d="M43.795 26.8655C43.2439 27.8987 42.5102 28.6175 41.8765 29.0962C41.2936 29.537 40.5774 29.7692 39.8453 29.7692H30.9755C27.5833 29.7692 24.191 29.7692 20.8004 29.7692C20.2207 29.7692 19.6506 29.6239 19.1471 29.3395C18.3467 28.8877 17.2509 28.0519 16.5728 26.6206C16.36 26.1719 15.5754 24.4468 16.2297 22.3977C16.3616 21.9822 16.8571 20.5083 18.3928 19.5019C19.7872 18.5888 21.2244 18.5935 21.928 18.6662C22.1392 18.6883 22.3345 18.5603 22.4028 18.3613C22.7649 17.3044 23.5113 15.7167 25.0661 14.4654C28.1661 11.9693 33.0179 11.9835 36.1052 14.3943C37.5901 15.5539 38.3365 17.0105 38.7034 17.9332C38.7717 18.1038 38.9337 18.2144 39.1179 18.2175C39.8262 18.2317 40.9347 18.3771 42.0162 19.069C44.5874 20.7152 44.5684 23.8923 44.5636 24.1024C44.5334 25.4563 44.0236 26.4374 43.7965 26.8623L43.795 26.8655Z" fill="white"/>
<path opacity="0.7" d="M34.4561 20.5058C34.0113 21.3386 33.419 21.9179 32.9075 22.3037C32.4371 22.659 31.859 22.8462 31.268 22.8462H24.1086C21.3704 22.8462 18.6323 22.8462 15.8954 22.8462C15.4275 22.8462 14.9673 22.729 14.561 22.4998C13.9149 22.1357 13.0304 21.4621 12.483 20.3085C12.3112 19.9469 11.678 18.5564 12.2061 16.905C12.3125 16.5701 12.7125 15.3821 13.9521 14.571C15.0776 13.8351 16.2377 13.8389 16.8056 13.8975C16.9761 13.9153 17.1338 13.8121 17.1889 13.6517C17.4812 12.7999 18.0836 11.5202 19.3386 10.5118C21.8409 8.49996 25.7571 8.51142 28.2491 10.4545C29.4477 11.3891 30.0502 12.563 30.3463 13.3066C30.4014 13.4442 30.5322 13.5333 30.6809 13.5358C31.2526 13.5473 32.1474 13.6644 33.0204 14.2221C35.0958 15.5489 35.0804 18.1095 35.0765 18.2789C35.0522 19.3701 34.6407 20.1608 34.4574 20.5033L34.4561 20.5058Z" fill="white"/>
</svg>
