<svg width="56" height="38" viewBox="0 0 56 38" fill="none" xmlns="http://www.w3.org/2000/svg">
<path opacity="0.7" d="M34.4561 15.5058C34.0113 16.3386 33.419 16.9179 32.9075 17.3037C32.4371 17.659 31.859 17.8462 31.268 17.8462H24.1086C21.3704 17.8462 18.6323 17.8462 15.8954 17.8462C15.4275 17.8462 14.9673 17.729 14.561 17.4998C13.9149 17.1357 13.0304 16.4621 12.483 15.3085C12.3112 14.9469 11.678 13.5564 12.2061 11.905C12.3125 11.5701 12.7125 10.3821 13.9521 9.57102C15.0776 8.83506 16.2377 8.83888 16.8056 8.89745C16.9761 8.91528 17.1338 8.81214 17.1889 8.65171C17.4812 7.79987 18.0836 6.52021 19.3386 5.51177C21.8409 3.49996 25.7571 3.51142 28.2491 5.45447C29.4477 6.38907 30.0502 7.56304 30.3463 8.30664C30.4014 8.44416 30.5322 8.53329 30.6809 8.53584C31.2526 8.5473 32.1474 8.66444 33.0204 9.22214C35.0958 10.5489 35.0804 13.1095 35.0765 13.2789C35.0522 14.3701 34.6407 15.1608 34.4574 15.5033L34.4561 15.5058Z" fill="#BCBCBC"/>
<path d="M26.2307 26.0119C26.2436 26.8862 25.6283 27.6786 24.8847 27.6786C24.1411 27.6786 23.5271 26.8849 23.5387 26.0119C23.5478 25.3806 24.0582 23.988 24.5375 22.789C24.6645 22.472 25.1127 22.4707 25.241 22.7864C25.7293 23.9958 26.2216 25.378 26.2307 26.0119Z" fill="#C3EAF4"/>
<path d="M32.769 27.205C32.782 28.0793 32.1666 28.8717 31.423 28.8717C30.6795 28.8717 30.0654 28.078 30.0771 27.205C30.0861 26.5737 30.5965 25.1811 31.0759 23.9821C31.2028 23.6651 31.651 23.6638 31.7793 23.9795C32.2677 25.1889 32.7599 26.5711 32.769 27.205Z" fill="#C3EAF4"/>
<path d="M34.1796 32.6477C34.1842 32.9538 33.9789 33.2308 33.7309 33.2308C33.483 33.2308 33.2777 32.9538 33.2823 32.6477C33.2858 32.4267 33.4553 31.9396 33.6145 31.5193C33.6571 31.4087 33.8059 31.4075 33.8486 31.5193C34.0112 31.9432 34.175 32.4267 34.1784 32.6489L34.1796 32.6477Z" fill="#C3EAF4"/>
<path d="M29.5614 30.1682C29.5706 30.7015 29.1304 31.1846 28.6 31.1846C28.0695 31.1846 27.6293 30.7015 27.6386 30.1682C27.6439 29.8255 27.933 29.1183 28.2366 28.451C28.3666 28.165 28.84 28.1637 28.9699 28.4497C29.2776 29.1196 29.5547 29.8242 29.5614 30.1682Z" fill="#C3EAF4"/>
<path d="M36.8706 26.7587C36.8754 27.0602 36.6414 27.3333 36.3585 27.3333C36.0755 27.3333 35.8415 27.0602 35.8463 26.7587C35.8498 26.5656 36.0027 26.1645 36.165 25.788C36.2343 25.6268 36.4862 25.6256 36.5566 25.788C36.7202 26.1669 36.8683 26.5656 36.8718 26.7599L36.8706 26.7587Z" fill="#C3EAF4"/>
<path opacity="0.7" d="M43.795 21.8655C43.2439 22.8987 42.5102 23.6175 41.8765 24.0962C41.2936 24.537 40.5774 24.7692 39.8453 24.7692H30.9755C27.5833 24.7692 24.191 24.7692 20.8004 24.7692C20.2207 24.7692 19.6506 24.6239 19.1471 24.3395C18.3467 23.8877 17.2509 23.0519 16.5728 21.6206C16.36 21.1719 15.5754 19.4468 16.2297 17.3977C16.3616 16.9822 16.8571 15.5083 18.3928 14.5019C19.7872 13.5888 21.2244 13.5935 21.928 13.6662C22.1392 13.6883 22.3345 13.5603 22.4028 13.3613C22.7649 12.3044 23.5113 10.7167 25.0661 9.46543C28.1661 6.96931 33.0179 6.98353 36.1052 9.39434C37.5901 10.5539 38.3365 12.0105 38.7034 12.9331C38.7717 13.1038 38.9337 13.2144 39.1179 13.2175C39.8262 13.2317 40.9347 13.3771 42.0162 14.069C44.5874 15.7152 44.5684 18.8923 44.5636 19.1024C44.5334 20.4563 44.0236 21.4374 43.7965 21.8623L43.795 21.8655Z" fill="white"/>
</svg>
